<svg height="512.003pt" viewBox="0 0 512.003 512.003" width="512.003pt" xmlns="http://www.w3.org/2000/svg"><path d="m265.042969 330.085938c20.449219-21.542969 30.863281-49.738282 29.320312-79.402344l-.640625-12.34375-12.347656-.644532c-23.042969-1.199218-45.191406 4.816407-64.027344 17.140626h-35.523437l-57.304688 57.304687h49.0625c-2.640625 8.324219-4.261719 17.015625-4.804687 25.9375l-67.707032 7.804687 21.5 11.308594c22.421876 11.792969 40.507813 29.875 52.296876 52.300782l11.308593 21.5 7.804688-67.710938c5.492187-.332031 10.898437-1.078125 16.183593-2.214844v49.667969l42.632813-42.632813-1.3125-25.917968c4.796875-3.605469 9.332031-7.648438 13.558594-12.097656zm-104.308594-32.945313 27.300781-27.300781h11.078125c-7.996093 8.15625-14.527343 17.355468-19.464843 27.300781zm15.761719 86.859375c-8.054688-10.820312-17.613282-20.378906-28.433594-28.433594l32.136719-3.703125zm60.984375-21.792969-12.3125 12.316407v-17.867188c4.023437-1.511719 7.953125-3.273438 11.765625-5.269531zm-50.207031-13.71875h-3.699219v-3.699219c0-25.546874 10.203125-49.304687 28.730469-66.890624 18.246093-17.324219 42.027343-26.277344 67.132812-25.273438 1 25.085938-7.949219 48.886719-25.273438 67.132812-17.589843 18.527344-41.34375 28.730469-66.890624 28.730469zm0 0"/><path d="m243.035156 271.492188-12.871094 7.707031c2.765626 4.617187 6.113282 8.90625 9.953126 12.746093 3.847656 3.847657 8.148437 7.203126 12.777343 9.972657l7.699219-12.875c-3.574219-2.136719-6.894531-4.730469-9.871094-7.703125-2.96875-2.96875-5.554687-6.28125-7.6875-9.847656zm0 0"/><path d="m380.304688 274.304688 12.347656-.644532.644531-12.347656c1.195313-23.035156-4.820313-45.183594-17.144531-64.023438v-35.523437l-57.304688-57.304687v49.0625c-8.320312-2.640626-17.015625-4.261719-25.9375-4.804688l-7.804687-67.707031-11.304688 21.5c-11.792969 22.421875-29.878906 40.507812-52.304687 52.296875l-21.5 11.308594 67.710937 7.804687c.332031 5.492187 1.078125 10.898437 2.214844 16.183594h-49.667969l42.632813 42.632812 25.917969-1.3125c3.609374 4.792969 7.644531 9.328125 12.097656 13.554688 20.148437 19.125 46.109375 29.472656 73.652344 29.472656 1.910156 0 3.828124-.050781 5.75-.148437zm-46.457032-133.628907 27.304688 27.300781v11.074219c-8.160156-7.992187-17.359375-14.523437-27.304688-19.464843zm-86.855468 15.757813c10.820312-8.054688 20.375-17.613282 28.429687-28.429688l3.707031 32.132813zm21.789062 60.988281-12.3125-12.3125h17.863281c1.515625 4.023437 3.273438 7.949219 5.273438 11.761719zm13.722656-50.210937v-3.699219h3.699219c25.542969 0 49.300781 10.203125 66.890625 28.730469 17.320312 18.246093 26.273438 42.046874 25.273438 67.136718-25.082032 1-48.886719-7.953125-67.132813-25.273437-18.527344-17.589844-28.730469-41.347657-28.730469-66.894531zm0 0"/><path d="m339.046875 220.054688c-3.839844 3.835937-7.1875 8.125-9.953125 12.746093l12.871094 7.703125c2.132812-3.5625 4.71875-6.875 7.6875-9.84375 2.976562-2.976562 6.296875-5.566406 9.867187-7.699218l-7.691406-12.878907c-4.636719 2.769531-8.933594 6.125-12.78125 9.972657zm0 0"/><path d="m163.898438 174.835938h-75.695313v75.695312h75.695313zm-15 60.695312h-45.695313v-45.695312h45.695313zm0 0"/><path d="m189.835938 103.203125h45.695312v20.363281h15v-35.363281h-75.695312v68.195313h15zm0 0"/><path d="m163.898438 88.203125h-75.695313v75.695313h75.695313zm-15 60.695313h-45.695313v-45.695313h45.695313zm0 0"/><path d="m408.800781 322.164062h-45.695312v-36.726562h-15v51.726562h75.695312v-68.191406h-15zm0 0"/><path d="m348.105469 123.539062h15v-20.335937h45.695312v45.695313h-20.335937v15h35.335937v-75.695313h-75.695312zm0 0"/><path d="m388.652344 189.835938h20.148437v53.195312h15v-68.195312h-35.148437zm0 0"/><path d="m475.132812 189.835938c3.703126 2.3125 8.070313 3.652343 12.75 3.652343 13.296876 0 24.117188-10.820312 24.117188-24.121093 0-13.300782-10.820312-24.121094-24.117188-24.121094-4.679687 0-9.046874 1.339844-12.75 3.648437h-25.394531v-45.691406h25.394531c3.703126 2.3125 8.070313 3.648437 12.75 3.648437 13.296876 0 24.117188-10.820312 24.117188-24.121093s-10.820312-24.121094-24.117188-24.121094c-4.679687 0-9.046874 1.339844-12.75 3.652344h-25.394531v-25.394531c2.316407-3.699219 3.652344-8.070313 3.652344-12.746094 0-13.300782-10.820313-24.121094-24.121094-24.121094s-24.121093 10.820312-24.121093 24.121094c0 4.675781 1.339843 9.046875 3.652343 12.746094v25.394531h-45.695312v-25.394531c2.3125-3.699219 3.652343-8.070313 3.652343-12.746094 0-13.300782-10.820312-24.121094-24.121093-24.121094s-24.121094 10.820312-24.121094 24.121094c0 4.675781 1.335937 9.046875 3.648437 12.746094v25.394531h-45.691406v-25.394531c2.3125-3.699219 3.648438-8.070313 3.648438-12.746094 0-13.300782-10.820313-24.121094-24.121094-24.121094s-24.121094 10.820312-24.121094 24.121094c0 4.679687 1.339844 9.046875 3.652344 12.746094v25.394531h-45.695312v-25.394531c2.3125-3.699219 3.652343-8.070313 3.652343-12.746094 0-13.300782-10.820312-24.121094-24.121093-24.121094-13.300782 0-24.121094 10.820312-24.121094 24.121094 0 4.675781 1.339844 9.046875 3.648437 12.746094v25.394531h-45.691406v-25.394531c2.3125-3.699219 3.648437-8.070313 3.648437-12.746094 0-13.300782-10.820312-24.121094-24.121093-24.121094-13.296875 0-24.117188 10.820312-24.117188 24.121094 0 4.675781 1.335938 9.046875 3.648438 12.746094v25.398437h-25.394531c-3.699219-2.316406-8.070313-3.652344-12.746094-3.652344-13.300782 0-24.121094 10.820313-24.121094 24.117188 0 13.300781 10.820312 24.121093 24.121094 24.121093 4.675781 0 9.046875-1.335937 12.746094-3.648437h25.398437v45.695313h-25.398437c-3.699219-2.3125-8.070313-3.652344-12.746094-3.652344-13.300782 0-24.121094 10.820312-24.121094 24.121094 0 13.300781 10.820312 24.121093 24.121094 24.121093 4.675781 0 9.046875-1.339843 12.746094-3.648437h25.394531v45.691406h-25.394531c-3.699219-2.3125-8.070313-3.648438-12.746094-3.648438-13.300782-.003906-24.121094 10.816407-24.121094 24.117188s10.820312 24.121094 24.121094 24.121094c4.679687 0 9.046875-1.335938 12.746094-3.648438h25.394531v45.691406h-25.394531c-3.699219-2.3125-8.070313-3.648437-12.746094-3.648437-13.300782 0-24.121094 10.820313-24.121094 24.121094 0 13.296875 10.820312 24.117187 24.121094 24.117187 4.675781 0 9.046875-1.335937 12.746094-3.648437h25.394531v45.695312h-25.394531c-3.699219-2.316406-8.070313-3.652343-12.746094-3.652343-13.300782 0-24.121094 10.820312-24.121094 24.121093s10.820312 24.121094 24.121094 24.121094c4.675781 0 9.046875-1.339844 12.746094-3.652344h25.394531v25.398438c-2.3125 3.699219-3.648438 8.066406-3.648438 12.746093 0 13.300782 10.820313 24.121094 24.121094 24.121094 13.296875 0 24.121094-10.820312 24.121094-24.121094 0-4.675781-1.339844-9.046874-3.652344-12.746093v-25.398438h45.695313v25.398438c-2.3125 3.699219-3.652344 8.066406-3.652344 12.746093 0 13.300782 10.820312 24.121094 24.121094 24.121094 13.300781 0 24.121093-10.820312 24.121093-24.121094 0-4.675781-1.335937-9.046874-3.648437-12.746093v-25.398438h45.691406v25.394531c-2.3125 3.703126-3.648438 8.070313-3.648438 12.75-.003906 13.296876 10.816407 24.117188 24.117188 24.117188s24.121094-10.820312 24.121094-24.121094c0-4.675781-1.339844-9.042968-3.648438-12.746094v-25.394531h45.691406v25.394531c-2.3125 3.703126-3.648437 8.070313-3.648437 12.746094 0 13.300782 10.820313 24.121094 24.121094 24.121094s24.121093-10.820312 24.121093-24.121094c0-4.675781-1.339843-9.042968-3.652343-12.746094v-25.394531h45.695312v25.394531c-2.3125 3.703126-3.652343 8.070313-3.652343 12.746094 0 13.300782 10.820312 24.121094 24.121093 24.121094s24.121094-10.820312 24.121094-24.121094c0-4.675781-1.339844-9.042968-3.652344-12.746094v-25.394531h25.394531c3.703126 2.3125 8.070313 3.648438 12.75 3.648438 13.296876 0 24.117188-10.820313 24.117188-24.117188 0-13.300781-10.820312-24.121093-24.117188-24.121093-4.679687 0-9.046874 1.335937-12.75 3.648437h-25.394531v-45.695313h25.398438c3.699219 2.3125 8.066406 3.652344 12.746093 3.652344 13.300782 0 24.121094-10.820312 24.121094-24.121094 0-13.300781-10.820312-24.121093-24.121094-24.121093-4.679687 0-9.046874 1.339843-12.746093 3.648437h-25.394531v-45.6875h25.394531c3.699219 2.3125 8.070312 3.648438 12.746093 3.648438 13.300782 0 24.121094-10.820313 24.121094-24.121094s-10.820312-24.121094-24.121094-24.121094c-4.675781 0-9.046874 1.339844-12.746093 3.652344h-25.394531v-45.695312zm12.75-29.589844c5.027344 0 9.117188 4.09375 9.117188 9.121094 0 5.027343-4.089844 9.121093-9.117188 9.121093-5.03125 0-9.121093-4.089843-9.121093-9.121093 0-5.027344 4.089843-9.121094 9.121093-9.121094zm0-86.632813c5.027344 0 9.117188 4.089844 9.117188 9.117188 0 5.03125-4.089844 9.121093-9.117188 9.121093-5.03125 0-9.121093-4.089843-9.121093-9.121093 0-5.027344 4.089843-9.117188 9.121093-9.117188zm-58.613281-58.613281c5.03125 0 9.121094 4.09375 9.121094 9.121094 0 5.03125-4.089844 9.121094-9.121094 9.121094-5.027343 0-9.121093-4.089844-9.121093-9.121094 0-5.027344 4.089843-9.121094 9.121093-9.121094zm-86.632812 0c5.027343 0 9.121093 4.09375 9.121093 9.121094 0 5.03125-4.09375 9.121094-9.121093 9.121094-5.03125 0-9.121094-4.089844-9.121094-9.121094 0-5.027344 4.089844-9.121094 9.121094-9.121094zm-86.636719 0c5.03125 0 9.121094 4.09375 9.121094 9.121094 0 5.03125-4.089844 9.121094-9.121094 9.121094-5.027344 0-9.121094-4.089844-9.121094-9.121094 0-5.027344 4.09375-9.121094 9.121094-9.121094zm-86.632812 0c5.027343 0 9.121093 4.09375 9.121093 9.121094 0 5.03125-4.089843 9.121094-9.121093 9.121094-5.027344 0-9.121094-4.089844-9.121094-9.121094 0-5.027344 4.09375-9.121094 9.121094-9.121094zm-86.636719 0c5.03125 0 9.121093 4.09375 9.121093 9.121094 0 5.03125-4.089843 9.121094-9.121093 9.121094-5.027344 0-9.117188-4.089844-9.117188-9.121094 0-5.027344 4.089844-9.121094 9.117188-9.121094zm-58.609375 76.851562c-5.027344 0-9.121094-4.089843-9.121094-9.121093 0-5.027344 4.09375-9.117188 9.121094-9.117188 5.03125 0 9.121094 4.089844 9.121094 9.117188 0 5.03125-4.09375 9.121093-9.121094 9.121093zm0 86.636719c-5.027344 0-9.121094-4.09375-9.121094-9.121093 0-5.03125 4.09375-9.121094 9.121094-9.121094 5.03125 0 9.121094 4.089844 9.121094 9.121094 0 5.027343-4.09375 9.121093-9.121094 9.121093zm0 86.632813c-5.027344 0-9.121094-4.089844-9.121094-9.121094 0-5.027344 4.09375-9.121094 9.121094-9.121094 5.03125 0 9.121094 4.09375 9.121094 9.121094 0 5.03125-4.09375 9.121094-9.121094 9.121094zm0 86.632812c-5.027344 0-9.121094-4.089844-9.121094-9.117187 0-5.03125 4.09375-9.121094 9.121094-9.121094 5.03125 0 9.121094 4.089844 9.121094 9.121094 0 5.027343-4.09375 9.117187-9.121094 9.117187zm0 86.636719c-5.027344 0-9.121094-4.089844-9.121094-9.121094 0-5.027343 4.09375-9.121093 9.121094-9.121093 5.03125 0 9.121094 4.089843 9.121094 9.121093 0 5.027344-4.09375 9.121094-9.121094 9.121094zm58.609375 58.609375c-5.027344 0-9.117188-4.089844-9.117188-9.121094 0-5.027344 4.089844-9.117187 9.117188-9.117187 5.03125 0 9.121093 4.089843 9.121093 9.117187 0 5.03125-4.089843 9.121094-9.121093 9.121094zm86.636719 0c-5.027344 0-9.121094-4.089844-9.121094-9.121094 0-5.027344 4.09375-9.117187 9.121094-9.117187 5.027343 0 9.121093 4.089843 9.121093 9.117187 0 5.03125-4.09375 9.121094-9.121093 9.121094zm86.632812 0c-5.027344 0-9.121094-4.089844-9.121094-9.121094 0-5.027344 4.09375-9.117187 9.121094-9.117187 5.03125 0 9.121094 4.089843 9.121094 9.117187 0 5.03125-4.089844 9.121094-9.121094 9.121094zm86.636719 0c-5.03125 0-9.121094-4.089844-9.121094-9.121094 0-5.027344 4.089844-9.117187 9.121094-9.117187 5.027343 0 9.121093 4.089843 9.121093 9.117187 0 5.03125-4.09375 9.121094-9.121093 9.121094zm86.632812 0c-5.027343 0-9.121093-4.089844-9.121093-9.121094 0-5.027344 4.09375-9.117187 9.121093-9.117187 5.03125 0 9.121094 4.089843 9.121094 9.117187 0 5.03125-4.089844 9.121094-9.121094 9.121094zm58.613281-76.851562c5.027344 0 9.117188 4.089843 9.117188 9.121093s-4.089844 9.121094-9.117188 9.121094c-5.03125 0-9.121093-4.089844-9.121093-9.121094s4.089843-9.121093 9.121093-9.121093zm0-86.632813c5.027344 0 9.117188 4.089844 9.117188 9.121094 0 5.027343-4.089844 9.121093-9.117188 9.121093-5.03125 0-9.121093-4.09375-9.121093-9.121093 0-5.03125 4.089843-9.121094 9.121093-9.121094zm0-86.636719c5.027344 0 9.117188 4.09375 9.117188 9.121094 0 5.03125-4.089844 9.121094-9.117188 9.121094-5.03125 0-9.121093-4.089844-9.121093-9.121094 0-5.027344 4.089843-9.121094 9.121093-9.121094zm-24.121093 3.652344v10.9375h-29.023438v75.695312h29.023438v10.941407h-29.023438v75.691406h29.023438v10.941406h-29.023438v29.019531h-10.9375v-29.019531h-75.695312v29.019531h-10.941407v-29.019531h-75.691406v29.019531h-10.941406v-29.019531h-75.695312v29.019531h-10.9375v-29.019531h-75.695313v29.019531h-10.941406v-29.019531h-29.019531v-10.941406h29.019531v-75.691406h-29.019531v-10.941407h29.019531v-75.691406h-29.019531v-10.941406h29.019531v-75.695312h-29.019531v-10.9375h29.019531v-75.695313h-29.019531v-10.941406h29.019531v-29.019531h10.941406v29.019531h75.695313v-29.019531h10.9375v29.019531h75.695312v-29.019531h10.9375v29.019531h75.695312v-29.019531h10.941407v29.019531h75.691406v-29.019531h10.941406v29.019531h29.019531v10.941406h-29.019531v75.695313h29.019531v10.9375h-29.019531v75.695312zm0 0"/><path d="m348.105469 423.800781h75.695312v-75.695312h-75.695312zm15-60.695312h45.695312v45.695312h-45.695312zm0 0"/><path d="m189.835938 189.835938h14.96875v-15h-29.96875v67.5h15zm0 0"/><path d="m132.613281 322.164062h-29.410156v-45.691406h46.808594v-15h-61.808594v75.691406h44.410156zm0 0"/><path d="m148.898438 408.800781h-45.695313v-51.617187h-15v66.617187h75.695313v-20.65625h-15zm0 0"/><path d="m322.164062 322.164062h-40.28125v15h55.28125v-58.996093h-15zm0 0"/><path d="m235.53125 408.800781h-13.25v15h28.25v-28.25h-15zm0 0"/><path d="m261.472656 423.800781h75.691406v-75.695312h-75.691406zm15-60.695312h45.691406v45.695312h-45.691406zm0 0"/><path d="m202.285156 338.484375-2.652344-14.761719c14.296876-2.570312 27.21875-9.578125 37.363282-20.265625l10.878906 10.328125c-12.359375 13.019532-28.125 21.5625-45.589844 24.699219zm0 0"/><path d="m317.203125 227.8125c-13.019531-12.359375-21.558594-28.125-24.699219-45.589844l14.765625-2.652344c2.570313 14.296876 9.574219 27.21875 20.261719 37.367188zm0 0"/></svg>