<svg height="512pt" viewBox="0 0 512 512" width="512pt" xmlns="http://www.w3.org/2000/svg"><path d="m504.5 319.777344c-13.605469 0-20.800781 2.316406-27.148438 4.363281-6.066406 1.953125-11.308593 3.636719-22.554687 3.636719-11.25 0-16.492187-1.6875-22.558594-3.636719-6.347656-2.046875-13.546875-4.363281-27.148437-4.363281-13.601563 0-20.800782 2.316406-27.148438 4.363281-6.0625 1.953125-11.304687 3.636719-22.550781 3.636719s-16.484375-1.6875-22.550781-3.636719c-6.351563-2.046875-13.546875-4.363281-27.148438-4.363281-13.601562 0-20.796875 2.316406-27.144531 4.363281-6.066406 1.953125-11.308594 3.636719-22.554687 3.636719-11.246094 0-16.484376-1.6875-22.546876-3.636719-6.351562-2.046875-13.546874-4.363281-27.148437-4.363281s-20.800781 2.316406-27.148437 4.363281c-6.066407 1.953125-11.304688 3.636719-22.550782 3.636719s-16.484375-1.6875-22.550781-3.636719c-6.351563-2.046875-13.546875-4.363281-27.148437-4.363281-13.601563 0-20.796876 2.316406-27.148438 4.363281-6.0625 1.953125-11.304688 3.636719-22.550781 3.636719-11.246094 0-16.484375-1.6875-22.550781-3.636719-6.347657-2.046875-13.542969-4.363281-27.144532-4.363281h-7.503906v192.160156h512v-192.160156zm-7.5 177.160156h-482v-161.859375c6.453125.570313 10.519531 1.882813 15.050781 3.339844 6.351563 2.042969 13.546875 4.359375 27.148438 4.359375 13.601562 0 20.796875-2.316406 27.144531-4.359375 6.066406-1.953125 11.304688-3.640625 22.554688-3.640625 11.246093 0 16.484374 1.6875 22.550781 3.640625 6.347656 2.042969 13.542969 4.359375 27.144531 4.359375 13.605469 0 20.800781-2.316406 27.148438-4.359375 6.066406-1.953125 11.304687-3.640625 22.554687-3.640625 11.246094 0 16.484375 1.6875 22.546875 3.640625 6.351562 2.042969 13.546875 4.359375 27.148438 4.359375 13.601562 0 20.796874-2.316406 27.148437-4.359375 6.0625-1.953125 11.300781-3.640625 22.546875-3.640625 11.25 0 16.488281 1.6875 22.554688 3.640625 6.347656 2.042969 13.542968 4.359375 27.148437 4.359375 13.601563 0 20.796875-2.316406 27.144531-4.359375 6.066406-1.953125 11.304688-3.640625 22.550782-3.640625 11.25 0 16.488281 1.6875 22.554687 3.640625 6.351563 2.042969 13.546875 4.359375 27.152344 4.359375s20.800781-2.316406 27.148437-4.359375c4.53125-1.457031 8.601563-2.769531 15.054688-3.339844v161.859375zm0 0"/><path d="m60.648438 215.878906 10.035156 10.03125 16.996094-16.992187c1.648437-1.359375 3.167968-2.878907 4.527343-4.527344l183.175781-183.175781 8.40625 8.40625-187.898437 188.402344 5.292969 5.296874c5.597656 5.59375 13.035156 8.675782 20.949218 8.675782 7.914063 0 15.355469-3.082032 20.949219-8.675782 5.59375-5.597656 8.675781-13.035156 8.675781-20.949218 0-.574219-.015624-1.144532-.046874-1.714844.566406.03125 1.136718.050781 1.710937.050781 7.914063 0 15.355469-3.082031 20.949219-8.679687 5.597656-5.59375 8.679687-13.035156 8.679687-20.949219 0-.570313-.019531-1.144531-.050781-1.710937.566406.03125 1.140625.046874 1.714844.046874 7.914062 0 15.351562-3.082031 20.949218-8.675781 5.59375-5.597656 8.675782-13.035156 8.675782-20.949219 0-.578124-.015625-1.152343-.050782-1.726562.570313.03125 1.144532.046875 1.714844.046875 7.585938 0 15.171875-2.886719 20.949219-8.660156 5.59375-5.597657 8.675781-13.035157 8.675781-20.949219 0-.574219-.015625-1.144531-.046875-1.714844.566407.03125 1.140625.050782 1.714844.050782 7.910156 0 15.351563-3.082032 20.945313-8.679688 5.597656-5.59375 8.679687-13.035156 8.679687-20.949219 0-5.453125-1.464844-10.683593-4.207031-15.238281l7.050781-7.074219v254.464844h15v-269.503906l10.222656-10.25-29.605469-29.605469-176.40625 176.40625c-3.234374-14.828125-16.464843-25.96875-32.246093-25.96875-18.199219 0-33 14.804688-33 33 0 16.121094 11.617187 29.578125 26.917969 32.441406zm71.828124-3.164062c-2.761718 2.761718-6.4375 4.28125-10.34375 4.28125-1.226562 0-2.433593-.148438-3.59375-.441406l17.761719-17.808594c1.226563 4.839844-.046875 10.1875-3.824219 13.96875zm31.289063-31.292969c-3.785156 3.789063-9.148437 5.058594-13.996094 3.816406l17.800781-17.847656c1.257813 4.855469-.007812 10.234375-3.804687 14.03125zm31.289063-31.289063c-2.761719 2.761719-6.433594 4.28125-10.339844 4.28125-1.277344 0-2.527344-.160156-3.726563-.476562l17.863281-17.914062c.324219 1.214843.488282 2.476562.488282 3.765624 0 3.90625-1.523438 7.578126-4.285156 10.34375zm31.292968-31.289062c-3.820312 3.820312-9.246094 5.078125-14.128906 3.78125l17.898438-17.949219c1.316406 4.890625.058593 10.335938-3.769532 14.167969zm31.289063-31.292969c-3.835938 3.839844-9.292969 5.09375-14.191407 3.765625l17.945313-17.996094c1.34375 4.90625.09375 10.382813-3.753906 14.230469zm-190.90625 77.886719c9.921875 0 18 8.078125 18 18 0 4.09375-1.375 7.871094-3.683594 10.898438l-3.417969 3.421874c-3.027344 2.308594-6.808594 3.679688-10.898437 3.679688-9.925781 0-18-8.074219-18-18 0-9.921875 8.074219-18 18-18zm0 0"/><path d="m303.601562 453.523438c0 2.433593-1.984374 4.414062-4.417968 4.414062-2.4375 0-4.417969-1.980469-4.417969-4.414062v-103.75h-15v103.75c0 2.433593-1.980469 4.414062-4.414063 4.414062-2.4375 0-4.417968-1.980469-4.417968-4.414062v-11.917969h-15v11.917969c0 10.707031 8.710937 19.414062 19.417968 19.414062 4.488282 0 8.625-1.53125 11.914063-4.09375 3.292969 2.5625 7.429687 4.09375 11.917969 4.09375 10.707031 0 19.417968-8.707031 19.417968-19.414062v-11.917969h-15zm0 0"/><path d="m177.460938 390.105469-18.566407-18.566407-10.605469 10.605469 7.140626 7.144531c-15.703126 3.234376-28.601563 13.839844-35.675782 20.832032-5.214844-5.144532-13.574218-12.25-23.832031-16.914063l-6.207031 13.652344c8.527344 3.878906 15.636718 10.082031 19.890625 14.335937-4.234375 4.242188-11.3125 10.410157-19.890625 14.3125l6.207031 13.652344c10.257813-4.664062 18.617187-11.769531 23.832031-16.914062 4.96875 4.914062 12.816406 11.609375 22.488282 16.28125l-7.039063 7.039062 10.605469 10.605469 12.574218-12.574219c2.085938.292969 4.210938.453125 6.375.453125 28.148438 0 49.957032-27.050781 50.871094-28.203125l3.707032-4.664062-3.707032-4.664063c-.769531-.96875-16.402344-20.363281-38.167968-26.414062zm-47.542969 31.082031c6.597656-6.605469 20.019531-17.867188 34.839843-17.867188.851563 0 1.703126.035157 2.542969.109376-2.335937 5.574218-3.546875 11.574218-3.546875 17.757812 0 6.179688 1.210938 12.183594 3.546875 17.757812-.839843.070313-1.691406.109376-2.542969.109376-14.820312 0-28.246093-11.269532-34.839843-17.867188zm51.851562 13.351562c-1.984375-4.136718-3.015625-8.667968-3.015625-13.351562 0-4.6875 1.03125-9.21875 3.015625-13.355469 7.589844 3.871094 13.910157 9.433594 17.828125 13.355469-3.917968 3.917969-10.238281 9.480469-17.828125 13.351562zm0 0"/><path d="m454.515625 418.722656c-8.398437 3.816406-15.324219 9.519532-19.875 13.898438-5.964844-5.738282-16.03125-13.753906-28.25-16.863282l4.6875-4.6875-10.605469-10.605468-15.640625 15.636718c-18.769531 5.359376-32.175781 21.988282-32.839843 22.828126l-3.707032 4.664062 3.707032 4.664062c.792968 1 19.71875 24.476563 44.261718 24.476563 1.707032 0 3.390625-.117187 5.039063-.328125l10.34375 10.34375 10.605469-10.605469-4.925782-4.929687c7.273438-3.753906 13.253906-8.730469 17.324219-12.648438 4.550781 4.375 11.480469 10.082032 19.875 13.898438l6.207031-13.65625c-6.621094-3.007813-12.226562-7.707032-15.84375-11.214844 3.617188-3.507812 9.222656-8.203125 15.84375-11.214844zm-73.292969 15.019532c1.308594 3.085937 1.984375 6.417968 1.984375 9.851562 0 3.441406-.679687 6.777344-1.996093 9.875-5.40625-2.933594-9.984376-6.835938-13.101563-9.863281 3.121094-3.015625 7.714844-6.921875 13.113281-9.863281zm15.027344 23.988281c-.195312 0-.390625 0-.582031-.003907 1.675781-4.476562 2.539062-9.242187 2.539062-14.132812 0-4.894531-.863281-9.65625-2.539062-14.132812.191406-.003907.386719-.007813.582031-.007813 11.6875 0 22.402344 8.558594 28.140625 14.125-5.761719 5.570313-16.527344 14.152344-28.140625 14.152344zm0 0"/><path d="m59.230469 175.933594h15v15h-15zm0 0"/><path d="m15 248.109375h163.820312l-29.332031 64.042969 13.636719 6.246094 39.0625-85.289063h-202.1875v74.167969h15zm0 0"/><path d="m454.796875 367.777344c-17.53125 0-27.519531-3.214844-34.8125-5.5625-5.203125-1.671875-7.574219-2.4375-14.894531-2.4375-7.324219 0-9.695313.761718-14.890625 2.4375-4.289063 1.378906-9.625 3.097656-16.792969 4.242187l-2.363281-14.8125c6.03125-.960937 10.367187-2.359375 14.558593-3.707031 5.695313-1.835938 9.808594-3.160156 19.488282-3.160156 9.675781 0 13.789062 1.324218 19.484375 3.15625 7.054687 2.269531 15.042969 4.84375 30.21875 4.84375 11.359375 0 18.464843-1.5 22.824219-2.632813l3.765624 14.519531c-8.191406 2.125-16.636718 3.113282-26.585937 3.113282zm-99.40625 0c-2.960937 0-5.851563-.089844-8.585937-.273438l.992187-14.964844c4.441406.292969 9.5625.316407 14.074219.066407l.828125 14.976562c-2.34375.128907-4.804688.195313-7.308594.195313zm-19.300781-1.535156c-6.515625-1.132813-11.5-2.738282-15.507813-4.027344l4.597657-14.277344c3.929687 1.265625 7.996093 2.574219 13.480468 3.527344zm0 0"/><path d="m153.589844 273.109375h-44.359375v-15h44.359375zm-54.359375 0h-15v-15h15zm-25 0h-15v-15h15zm0 0"/></svg>