<svg xmlns="http://www.w3.org/2000/svg" viewBox="0 0 202.6 179.21"><defs><style>.cls-1,.cls-10,.cls-11,.cls-12,.cls-3,.cls-6,.cls-7{fill:none;}.cls-1{stroke:#9abd4b;stroke-width:4.41px;}.cls-1,.cls-11,.cls-12,.cls-7,.cls-8{stroke-miterlimit:10;}.cls-2{fill:#5d7031;}.cls-3,.cls-7,.cls-8{stroke:#fff;stroke-width:6px;}.cls-10,.cls-3{stroke-linejoin:round;}.cls-4,.cls-8{fill:#fff;}.cls-5{fill:#d8ae58;}.cls-9{fill:#666665;}.cls-10,.cls-11,.cls-12{stroke:#666665;}.cls-10{stroke-linecap:round;}.cls-10,.cls-11{stroke-width:2px;}.cls-12{stroke-width:2.1px;}</style></defs><title>Asset 1</title><g id="Layer_2" data-name="Layer 2"><g id="Layer_1-2" data-name="Layer 1"><g id="logo"><circle class="cls-1" cx="104.66" cy="78.72" r="76.51"/><path class="cls-2" d="M80.46,63.86H82.7L74.23,46.14,65.76,63.86H68l-2.24,4.68H68l-2.24,4.69h7.41v4a1.06,1.06,0,0,0,1,1.06h0a1.06,1.06,0,0,0,1.06-1.06v-4H82.7l-2.24-4.69H82.7Z"/><path class="cls-2" d="M75.29,73.23H82.7l-2.24-4.69H82.7l-2.24-4.68H82.7L74.23,46.14v32.2h0a1.06,1.06,0,0,0,1.06-1.06Z"/><path class="cls-3" d="M158.34,96.14s-10.3-1.2-14.22,7.61c0,0-1.5,6.15-5.46,8,0,0,12.56-3.46,16.68-6.35,0,0,4.58-5.24,6.34-6.54"/><path class="cls-2" d="M166.79,59.63h3.3l-12.5-26.15-12.5,26.15h3.31l-3.31,6.92h3.31l-3.31,6.9H156v6A1.57,1.57,0,0,0,157.57,81h0a1.56,1.56,0,0,0,1.56-1.56h0v-6h10.94l-3.3-6.91h3.3Z"/><path class="cls-2" d="M159.15,73.45h10.94l-3.3-6.91h3.3l-3.3-6.92h3.3l-12.5-26.15V81h0a1.56,1.56,0,0,0,1.56-1.56h0Z"/><path class="cls-2" d="M139.71,61.59h1.93l-7.3-15.27L127,61.59h2l-1.93,4H129l-1.93,4h6.39v3.5a.91.91,0,0,0,.91.91h0a.91.91,0,0,0,.91-.91h0v-3.5h6.39l-1.93-4h1.93Z"/><path class="cls-2" d="M135.25,69.67h6.39l-1.93-4h1.93l-1.93-4h1.93l-7.3-15.27V74.08h0a.91.91,0,0,0,.91-.91h0Z"/><path class="cls-2" d="M57.36,60.52h2.83L49.49,38.9,38.79,60.52h2.83l-2.83,5.71h2.83l-2.83,5.71h9.37v5a1.32,1.32,0,0,0,1.33,1.3h0a1.31,1.31,0,0,0,1.34-1.29v-5h9.36l-2.83-5.71h2.83Z"/><path class="cls-2" d="M50.83,72h9.36l-2.83-5.71h2.83l-2.83-5.72h2.83L49.49,38.9V78.19h0a1.32,1.32,0,0,0,1.34-1.29Z"/><circle class="cls-1" cx="104.66" cy="78.72" r="76.51"/><path class="cls-4" d="M27.51,119.7l-.92-1.88-11.73,5.7L14,121.69,25.7,116l-.91-1.88,1.93-.94,2.72,5.59Z"/><path class="cls-4" d="M33.06,124.91l-13,7.77-1-1.75,6.13-3.66L24,125.44l-6.13,3.65-1-1.75,13.05-7.77,1,1.75-5.07,3,1.1,1.84,5.07-3Z"/><path class="cls-4" d="M26.6,136l-1.15-1.61-3.1,1.75-1.12-1.56,13.7-7,1.19,1.65L25.15,140,24,138.37Zm1.59-1.54,4.06-3.68h0l-4.79,2.66Z"/><path class="cls-4" d="M43.36,138,31.94,148l-1.35-1.53,7-6.17-7.91,5.17-.92-1.06L35,137.23h0l-7,6.17-1.34-1.53,11.42-10,1.81,2.06-6,7h0l7.7-5Z"/><path class="cls-4" d="M44.25,141.78l-2.57,2.7,1.49,1.42-1.49,1.58L40.18,146l-3.41,3.58L39,151.78l-1.5,1.57-3.72-3.55,10.48-11,3.55,3.39-1.49,1.57Z"/><path class="cls-4" d="M48.9,148.62l.39-.5c.68-.83.72-1.55.34-1.86a1,1,0,0,0-1.39.25.41.41,0,0,0-.07.11,3,3,0,0,0-.74,1.81L47,152.12A6,6,0,0,1,45.58,156a3.08,3.08,0,0,1-4.49.73c-1.27-1-1.51-2.84-.14-4.51l1-1.23,1.59,1.3-.9,1.09c-.59.72-.57,1.32-.17,1.65s1,.19,1.59-.5a3.6,3.6,0,0,0,.78-2l.16-2.87c.24-2,.19-2.65,1.5-4.26s3.11-1.84,4.45-.74,1.42,2.92.15,4.49l-.68.82Z"/><path class="cls-4" d="M52.32,164.37,54,158.15l-.55-.35L50.13,163l-1.7-1.08,8.13-12.84,2.88,1.83c1.65,1.05,1.41,3.16.11,5.21s-2.61,2.74-3.78,2.77l-1.66,6.63Zm2.32-8.5.55.35c1.11.71,1.53.72,2.72-1.15.65-1,1-1.95.31-2.38l-1.11-.7Z"/><path class="cls-4" d="M57.5,167.33l-1.78-1L63,153l1.79,1Z"/><path class="cls-4" d="M63.54,170.29l-2-.92,4.08-14.85,2,.92-3.4,10.81h0l6.06-9.58,2,.9Z"/><path class="cls-4" d="M74.34,160.64l-1.28,3.51,2,.71-.75,2-1.94-.71-1.7,4.64,2.93,1.06-.75,2L68,172.18l5.21-14.28,4.61,1.68-.74,2Z"/><path class="cls-4" d="M79.31,175.84l-.23-6.41-.63-.17-1.63,5.89-1.95-.53,4-14.64,3.28.89c1.88.53,2.27,2.61,1.62,4.95-.6,2.18-1.69,3.38-2.81,3.75l.34,6.83Zm-.25-8.8.63.16c1.27.36,1.67.25,2.26-1.88.33-1.18.38-2.15-.39-2.37l-1.27-.35Z"/><path class="cls-4" d="M91.22,174.59l-2-.28-.9,3.44-1.9-.28L91,162.79l2,.3.09,15.36-2-.3Zm0-2.21.19-5.48h0L90,172.2Z"/><path class="cls-4" d="M102.38,163.92l-1,15.15-2-.14L98,170.11h0l-.6,8.68-2-.14,1.05-15.15,2.14.15,1.3,8.53h0l.59-8.4Z"/><path class="cls-4" d="M107.68,168.23V167c0-.46-.37-1.22-1-1.22s-1,.8-1,1.26l.19,8.76c0,.46.34,1.23,1.06,1.22s1.13-.74,1.11-2v-2.32H106.9l-.05-2.16,3-.07.11,4.69c0,2.06-.85,3.94-2.9,4a3.09,3.09,0,0,1-3.16-3c0-.1,0-.2,0-.3l-.19-8.78c0-1.54.74-3.43,3-3.48a3.15,3.15,0,0,1,3.06,3.24v1.3Z"/><path class="cls-4" d="M116.85,176.18l.21,2.16-4.68.46-1.48-15.12,2-.19,1.26,13Z"/><path class="cls-4" d="M118.92,164.89l.62,3.68,2-.34.36,2.14-2,.33.82,4.89,3.07-.52.36,2.13-5.07.87-2.54-15,4.85-.83.36,2.14Z"/><path class="cls-4" d="M130.77,175.64l-3.37-5.45-.64.16,1.5,5.93-1.95.49L122.58,162l3.3-.83c1.9-.48,3.26,1.14,3.86,3.5.55,2.17.2,3.77-.59,4.64l3.68,5.77Zm-4.57-7.52.63-.17c1.28-.33,1.57-.61,1-2.77-.3-1.17-.74-2.05-1.51-1.85l-1.28.32Z"/><path class="cls-4" d="M134.62,163l-.2-.61c-.35-1-.94-1.42-1.4-1.25a1.07,1.07,0,0,0-.48,1.42,3,3,0,0,0,1.15,1.58l2.94,2.28a5.92,5.92,0,0,1,2.51,3.22c.71,2.07-.2,3.67-1.74,4.19s-3.2-.19-3.91-2.25l-.52-1.5,1.94-.66.46,1.33c.31.89.83,1.19,1.32,1s.7-.78.4-1.61a3.51,3.51,0,0,0-1.3-1.73l-2.36-1.64c-1.56-1.25-2.15-1.56-2.83-3.53s.06-3.6,1.71-4.17,3.23.33,3.89,2.24l.34,1Z"/><path class="cls-4" d="M147.65,165.47l-1.78.86,1.2,3.35-1.73.84-4.53-14.69,1.83-.89,8.75,12.65-1.83.89Zm-1.25-1.83L143.46,159h0l1.8,5.17Z"/><path class="cls-4" d="M150.76,155.32l-.32-.54c-.54-.92-1.2-1.21-1.62-1a1,1,0,0,0-.26,1.39l.08.1a3.08,3.08,0,0,0,1.44,1.32l3.33,1.64a5.94,5.94,0,0,1,3.1,2.66c1.11,1.88.54,3.63-.86,4.46s-3.18.44-4.28-1.43l-.81-1.36,1.77-1.05.72,1.22c.47.8,1,1,1.49.73s.53-.89.07-1.66a3.48,3.48,0,0,0-1.61-1.4l-2.64-1.14c-1.78-.91-2.42-1.08-3.48-2.89s-.65-3.53.85-4.42,3.23-.33,4.25,1.42l.54.92Z"/><path class="cls-4" d="M156.72,151.39l-.36-.51c-.61-.87-1.3-1.1-1.7-.82a1.05,1.05,0,0,0-.08,1.48l0,0a3.08,3.08,0,0,0,1.54,1.19l3.46,1.37a6.07,6.07,0,0,1,3.3,2.39c1.26,1.81.83,3.58-.51,4.53s-3.13.69-4.38-1.09l-.91-1.3,1.68-1.17.81,1.16c.54.76,1.12.91,1.54.61s.46-.93,0-1.66a3.49,3.49,0,0,0-1.73-1.3l-2.72-.93c-1.86-.76-2.51-.89-3.7-2.6s-.94-3.48.48-4.48,3.2-.58,4.36,1.07l.62.87Z"/><path class="cls-4" d="M163.45,144.7l5.62,6.73c1,1.19,1.49,3.22-.07,4.52-1.73,1.44-3.53.52-4.53-.69l-5.62-6.73c-1-1.2-1.55-3.11.17-4.55C160.59,142.68,162.45,143.5,163.45,144.7ZM161.9,146c-.29-.36-1.06-.78-1.52-.4s-.24,1.28,0,1.6l5.6,6.72c.32.38,1.06.81,1.61.36s.16-1.24-.13-1.59Z"/><path class="cls-4" d="M168.2,141.81l-.84-.86c-.32-.32-1.11-.63-1.53-.22a1.18,1.18,0,0,0,.14,1.6l6.15,6.25a1.2,1.2,0,0,0,1.6.16c.42-.41.11-1.21-.21-1.53l-.83-.85,1.46-1.44.83.85a3.13,3.13,0,0,1,.34,4.42l-.07.09a3.12,3.12,0,0,1-4.4,0l-.18-.2-6.16-6.26a3.06,3.06,0,0,1,3.88-4.72,3.19,3.19,0,0,1,.44.46l.84.85Z"/><path class="cls-4" d="M180,144.93l-1.35,1.5-11.32-10.14,1.36-1.5Z"/><path class="cls-4" d="M181.27,137.87l-1.22,1.55,2.54,2.5-1.19,1.5-10.48-11.24,1.26-1.61,13.38,7.56-1.26,1.6Zm-1.92-1.11-4.66-2.89h0l3.88,3.87Z"/><path class="cls-4" d="M178.4,125.52l-1.19,1.73L188,134.62l-1.15,1.68-10.75-7.38-1.18,1.72-1.77-1.22,3.52-5.13Z"/><path class="cls-4" d="M191.23,129.43l-1,1.75-13-7.82,1-1.74Z"/><path class="cls-4" d="M184.49,116.63l7.79,4c1.39.71,2.63,2.38,1.69,4.19-1,2-3.05,1.84-4.44,1.12l-7.79-4c-1.38-.72-2.64-2.26-1.61-4.26a3.1,3.1,0,0,1,4.25-1.12A.41.41,0,0,1,184.49,116.63Zm-.91,1.82c-.4-.21-1.29-.3-1.56.22s.27,1.27.64,1.46l7.77,4c.44.23,1.29.34,1.62-.3s-.34-1.2-.74-1.42Z"/><path class="cls-4" d="M184.5,108.42l14,5.79-.77,1.88L189,114.62h0l8,3.32-.77,1.88-14-5.8.82-2,8.5,1.48h0l-7.79-3.21Z"/><path class="cls-4" d="M75.17,133.93H73.64l-.3,2H71.85l1.82-8.82h1.57L77.06,136H75.48Zm-.25-1.28-.48-3.17h0L74,132.65Z"/><path class="cls-4" d="M83.51,127.16V136H81.93L80.38,131h0V136h-1.6v-8.82h1.67L81.91,132h0v-4.89Z"/><path class="cls-4" d="M88.46,129.72V129a.75.75,0,0,0-.94-.52A.74.74,0,0,0,87,129v5.08a.78.78,0,0,0,.79.73c.6,0,.9-.42.9-1.14v-1.36h-.88v-1.25H90.1v2.72a2.15,2.15,0,0,1-2,2.29h-.3c-1.75,0-2.38-1.09-2.38-2V129c0-.9.63-2,2.38-2a2.08,2.08,0,0,1,2.3,1.85s0,.1,0,.15v.69Z"/><path class="cls-4" d="M95.52,134.72V136H91.88v-8.82h1.58v7.56Z"/><path class="cls-4" d="M98.81,128.42v2.17h1.61v1.25H98.81v2.87h2.41V136h-4v-8.82H101v1.26Z"/><path class="cls-4" d="M106.5,136l-1.5-3.56h-.5V136h-1.56v-8.82h2.63a2.21,2.21,0,0,1,2.23,2.51,2.61,2.61,0,0,1-1.32,2.53l1.66,3.78Zm-2-4.89h.5c1,0,1.3-.12,1.3-1.42,0-.69-.16-1.25-.78-1.25h-1Z"/><path class="cls-4" d="M112.54,129.62v-.36c0-.61-.33-1-.71-1a.68.68,0,0,0-.7.66v0a1.47,1.47,0,0,0,.44,1.09l1.57,1.8a3,3,0,0,1,1,2.25,2.09,2.09,0,0,1-2.14,2h-.19a2,2,0,0,1-2.27-1.69c0-.11,0-.21,0-.31v-.92h1.59V134c0,.53.3.81.7.81a.73.73,0,0,0,.72-.73s0-.06,0-.08a1.72,1.72,0,0,0-.52-1.2l-1.31-1.36c-.83-1-1.19-1.25-1.19-2.47a2.32,2.32,0,0,1,4.59,0v.62Z"/><path class="cls-4" d="M115.94,134.4h1.58V136h-1.58Z"/><path class="cls-4" d="M124,129v5.1a2.08,2.08,0,0,1-2.15,2h-.13c-1.74,0-2.36-1.09-2.36-2V129a2.36,2.36,0,0,1,4.63-.18C124,128.89,124,129,124,129Zm-1.58,0a.77.77,0,0,0-.7-.75.75.75,0,0,0-.78.72v5.08a.77.77,0,0,0,.76.76h0a.79.79,0,0,0,.7-.76Z"/><path class="cls-4" d="M129.39,136l-1.5-3.56h-.5V136h-1.56v-8.82h2.63a2.21,2.21,0,0,1,2.23,2.51,2.64,2.64,0,0,1-1.32,2.53L131,136Zm-2-4.89h.5c1,0,1.3-.12,1.3-1.42,0-.69-.16-1.25-.78-1.25h-1Z"/><path class="cls-4" d="M135.57,129.72V129a.76.76,0,0,0-1.51,0v5.08a.78.78,0,0,0,.79.73c.59,0,.9-.42.9-1.14v-1.36h-.89v-1.25h2.3v2.72a2.15,2.15,0,0,1-2,2.29h-.3c-1.75,0-2.38-1.09-2.38-2V129c0-.9.63-2,2.38-2a2.08,2.08,0,0,1,2.3,1.85s0,.1,0,.15v.69Z"/><path class="cls-4" d="M80.72,31.27v2.41H82.5v1.4H80.72v3.2H83.4v1.4H79V29.87h4.2v1.4Z"/><path class="cls-4" d="M88.54,32.62v-.41c0-.68-.37-1.06-.79-1.06a.75.75,0,0,0-.78.71v.06a1.61,1.61,0,0,0,.49,1.2l1.75,2a3.28,3.28,0,0,1,1.13,2.49,2.31,2.31,0,0,1-2.4,2.21h-.19a2.28,2.28,0,0,1-2.53-2,1.5,1.5,0,0,1,0-.2v-1H87v.91c0,.6.33.89.78.89a.82.82,0,0,0,.8-.81.25.25,0,0,1,0-.08A1.91,1.91,0,0,0,88,36.18l-1.45-1.5c-.93-1.1-1.32-1.41-1.32-2.75a2.58,2.58,0,0,1,5.1,0v.68Z"/><path class="cls-4" d="M97.45,31.26h-1.8v8.42H93.9V31.26H92.1V29.87h5.35Z"/><path class="cls-4" d="M98.48,37.93h1.75v1.75H98.48Z"/><path class="cls-4" d="M106.22,29.87H108v9.81h-1.75V31.27h-.78v-1Z"/><path class="cls-4" d="M110,33.7V32.32a2.46,2.46,0,0,1,2.33-2.59,2.26,2.26,0,0,1,.45,0,2.32,2.32,0,0,1,2.55,2.06s0,.09,0,.14v4.93a2.73,2.73,0,0,1-2.53,2.91h-.13a2.27,2.27,0,0,1-2.43-2.08.45.45,0,0,1,0-.11v-.78h1.68v.78a.75.75,0,0,0,.73.78h0c.67,0,.9-.74.9-1.52V35.32a1.44,1.44,0,0,1-1.19.55A2.16,2.16,0,0,1,110,34,2.44,2.44,0,0,1,110,33.7Zm1.79,0a.82.82,0,0,0,.84.78h0c.56,0,.93-.26.93-.53V32a.86.86,0,0,0-.8-.81c-.7,0-1,.38-1,1.17,0,.07,0,1.2,0,1.33Z"/><path class="cls-4" d="M123,36.88a2.83,2.83,0,0,1-5.66,0,2.52,2.52,0,0,1,1.61-2.5,2.5,2.5,0,1,1,3.71-2.18,2.42,2.42,0,0,1-1.29,2.17A2.56,2.56,0,0,1,123,36.88Zm-1.79,0c0-.91-.24-1.6-1-1.75-.81.15-1,.84-1,1.75s.35,1.52,1.19,1.52C120.94,38.4,121.21,37.59,121.21,36.88Zm-1.9-4.54A.91.91,0,0,0,121,33a.88.88,0,0,0,0-.64c0-.7-.28-1.19-.81-1.19S119.31,31.65,119.31,32.34Z"/><path class="cls-4" d="M130.33,35.85v1.38A2.44,2.44,0,0,1,128,39.81a3.38,3.38,0,0,1-.45,0A2.33,2.33,0,0,1,125,37.74s0-.09,0-.13V32.69a2.73,2.73,0,0,1,2.51-2.94h.12a2.24,2.24,0,0,1,2.44,2,.81.81,0,0,1,0,.16v.67h-1.69V32a.76.76,0,0,0-.71-.81h-.05c-.67,0-.87.75-.87,1.54v1.54a1.36,1.36,0,0,1,1.19-.55,2.15,2.15,0,0,1,2.37,1.9A1.55,1.55,0,0,1,130.33,35.85Zm-1.79,0a.8.8,0,0,0-.83-.78h0c-.55,0-.9.26-.9.51v2a.85.85,0,0,0,.8.79c.67,0,1-.38,1-1.17,0-.1,0-1.2,0-1.36Z"/><circle class="cls-5" cx="104.75" cy="14.12" r="3.91"/><ellipse class="cls-4" cx="103.01" cy="11.88" rx="0.76" ry="0.47" transform="translate(15.99 68.26) rotate(-39.52)"/><circle class="cls-5" cx="82.59" cy="19.31" r="3.91"/><ellipse class="cls-4" cx="80.85" cy="17.06" rx="0.76" ry="0.47" transform="translate(7.62 55.35) rotate(-39.52)"/><circle class="cls-5" cx="126.15" cy="19.31" r="3.91"/><ellipse class="cls-4" cx="124.41" cy="17.07" rx="0.76" ry="0.47" transform="translate(17.57 83.07) rotate(-39.52)"/><ellipse class="cls-6" cx="82.59" cy="20.6" rx="1.98" ry="1.04"/><ellipse class="cls-6" cx="104.75" cy="15.46" rx="1.98" ry="1.04"/><ellipse class="cls-6" cx="126.15" cy="20.6" rx="1.98" ry="1.04"/><path class="cls-7" d="M116.89,70s-2.84-1.51-4.25-1.56c0,0-11.15-10.56-13.73-12,0,0-6.75,11-9.71,11.89,0,0-.82,1,2.67,1.27,0,0,3.3,0,3.64.39,0,0,1.17.43,1.07,1.07"/><path class="cls-7" d="M69.3,72.51A28.85,28.85,0,0,0,56.47,69s-2.33.5-4.17,4.33c0,0,0,.67,1.17,1.34"/><path class="cls-8" d="M49,90.66c-1.49-.24-13.18,4.73-13.18,4.73C12.2,110.19,3,108,3,108c0-5,8.94-19.19,8.94-19.19,4.69-5.77,1.92-9.6,1.92-9.6C3.41,57.67,4.7,57.55,4.7,57.55c5.77-.14,27.93,10.14,27.93,10.14a107.73,107.73,0,0,0,10.46,4.7l5.1,2c1.46.83,13.2.48,13.2.48,23.6-6.76,94.08-6.3,94.08-6.3l7.77.57S193.68,72.79,198.31,81c0,0-7.24,3.76-11.49,7.76,0,0,6.11-.65,7.49-1l5.29-.41s.41.43-7.67,6.28a80,80,0,0,1-12.5,4.75L172.1,100c-6,1.5-11.68,4.37-16.76,5.42,0,0-14.73,3-39,1.32S99.69,104,80.61,99.36,61,92.58,49,90.66Z"/><path class="cls-7" d="M116.31,100.43s-3.62,15.25-10.26,17.36a26.47,26.47,0,0,1-5.1-8.39,29.77,29.77,0,0,1-1.69-6.4s.3-2.42,2.27-2.57c0,0,3.16,1,4.67,0"/><path class="cls-7" d="M76.51,97.06a39.29,39.29,0,0,1-9.79,10.09s-2.82,3-4.06,2.71c-.75-.17-.29-2.16-.11-4.88a22.34,22.34,0,0,0-5.41-8.66s-1.83-1.46,0-2.31c0,0,.36.13,5-1"/><polygon class="cls-9" points="8.01 64.58 29.42 72.78 7.38 66.47 8.01 64.58"/><polygon class="cls-9" points="12.28 74.67 23.75 77 12.05 76.67 12.28 74.67"/><polygon class="cls-9" points="13.44 85.23 23.75 83.97 13.88 87.19 13.44 85.23"/><polygon class="cls-9" points="10.24 90.89 27.42 88.06 10.68 92.83 10.24 90.89"/><polygon class="cls-9" points="6.26 97.19 28.42 90.78 6.9 99.08 6.26 97.19"/><polygon class="cls-9" points="3.25 102.72 28.15 95.03 3.91 104.61 3.25 102.72"/><path class="cls-9" d="M185.89,78.91a.81.81,0,0,0-.64-.83c-.07,0-.53-.17-.67-.19a2.11,2.11,0,0,0-1,0,3.16,3.16,0,0,0-1.1.43,2,2,0,0,0-1,1c-.21.36-.12,1.18.28,1.37.89.43,1.44,1.13,2.44.85a1.19,1.19,0,0,0,.89-.38,1.88,1.88,0,0,0,.47-.93,1.82,1.82,0,0,0,.21-.58"/><path class="cls-10" d="M43.21,91.87s4.59-6.27,44.92,9.76c0,0-.76-.12,11.13,3.29"/><path class="cls-11" d="M114.35,106.64c5.55.19,16.6.58,24.31.45,0,0,1.61,0,4.25-.11"/><path class="cls-9" d="M158.33,96.24a16.32,16.32,0,0,0-4.24.34c-.35.06-.69.17-1,.25s-.67.21-1,.32a9.25,9.25,0,0,0-1,.37,10.22,10.22,0,0,0-.94.46c-.3.17-.62.32-.91.52l-.85.6c-.27.22-.53.45-.78.68a5.67,5.67,0,0,0-.73.74c-.22.26-.46.51-.66.78l-.58.86a19,19,0,0,0-1,1.82v-.1a17.2,17.2,0,0,1-.79,2.46,16.11,16.11,0,0,1-1.12,2.33,12.2,12.2,0,0,1-1.57,2.13,7.75,7.75,0,0,1-1,.9,3.66,3.66,0,0,1-.57.4l-.61.35-.55-1.5c2.83-.86,5.63-1.88,8.4-2.89,1.38-.52,2.77-1,4.12-1.56.69-.26,1.35-.54,2-.84a19.93,19.93,0,0,0,1.88-1l-.15.14c1.07-1.11,2.16-2.16,3.29-3.19.57-.52,1.15-1,1.75-1.52a15.77,15.77,0,0,1,1.88-1.36.1.1,0,0,1,.13,0h0a.09.09,0,0,1,0,.12h0c-1,1.07-2,2.29-2.94,3.46L156,105.93l-.12.12h0l-1,.68-1,.58c-.68.36-1.36.71-2,1s-1.39.61-2.1.89-1.41.53-2.12.77c-1.43.48-2.87.92-4.31,1.32s-2.89.8-4.35,1.18a.82.82,0,0,1-1-.61.8.8,0,0,1,.4-.89h0l.48-.25a3.37,3.37,0,0,0,.46-.31,7.32,7.32,0,0,0,.87-.69,11,11,0,0,0,1.45-1.81,16.39,16.39,0,0,0,1.13-2.1,16.64,16.64,0,0,0,.83-2.23v-.07h0a17.84,17.84,0,0,1,1.13-1.94l.67-.91c.23-.29.51-.55.77-.82a6.52,6.52,0,0,1,.82-.75c.3-.23.58-.48.89-.68l.94-.58c.32-.19.67-.33,1-.5a8.8,8.8,0,0,1,1-.42,9,9,0,0,1,1-.33,7.8,7.8,0,0,1,1.06-.26,10.23,10.23,0,0,1,1.08-.2A17,17,0,0,1,158.3,96a.09.09,0,0,1,.1.1.12.12,0,0,1-.1.1Z"/><path class="cls-9" d="M116.89,70c-.71-.28-1.43-.52-2.15-.74-.36-.11-.72-.2-1.08-.28a4.21,4.21,0,0,0-1-.12h-.13l-.15-.12c-2.35-1.93-4.67-3.91-7-5.85-1.15-1-2.3-2-3.47-2.92-.58-.48-1.16-1-1.74-1.42-.3-.23-.59-.46-.88-.67s-.57-.39-.84-.56L99.76,57c-.68,1.13-1.41,2.2-2.14,3.28s-1.49,2.14-2.3,3.16a34.7,34.7,0,0,1-2.54,3,17.64,17.64,0,0,1-1.46,1.41c-.27.22-.55.44-.85.64a4.55,4.55,0,0,1-1.07.5l.32-.21c.07-.09,0-.09.06-.15a.33.33,0,0,0,0-.14h0a2,2,0,0,0,.25.14c.11,0,.22.09.33.12a10.44,10.44,0,0,0,1.55.33h0a14.61,14.61,0,0,1,1.87.18c.31,0,.62.09.93.16a1.69,1.69,0,0,1,.48.12l.24.09a.61.61,0,0,1,.29.19l-.09-.06a2.67,2.67,0,0,1,.7.51.86.86,0,0,1,.29.77.72.72,0,0,0-.44-.59,2.89,2.89,0,0,0-.71-.27l-.09-.07h-.31a3.09,3.09,0,0,0-.43,0h-.91a15.82,15.82,0,0,0-1.82.07h0A13,13,0,0,1,90.15,70a3.62,3.62,0,0,1-.47-.13,2.31,2.31,0,0,1-.51-.22,1.35,1.35,0,0,1-.54-.57A1.08,1.08,0,0,1,88.77,68l.08-.11.24-.1a4.9,4.9,0,0,0,1.3-1,17.48,17.48,0,0,0,1.23-1.37c.8-1,1.57-2,2.3-3s1.45-2.09,2.16-3.16S97.46,57.1,98.14,56l.54-.85.79.5a7.86,7.86,0,0,1,1,.72c.26.24.63.48.93.72.61.49,1.19,1,1.77,1.49,1.15,1,2.26,2.06,3.38,3.11,2.2,2.11,4.35,4.27,6.42,6.51l-.27-.11a4.46,4.46,0,0,1,1.19.32,10.11,10.11,0,0,1,1.06.48A16.05,16.05,0,0,1,116.89,70Z"/><path class="cls-9" d="M111.47,70.06,99.59,59.39l12.52,9.9a.49.49,0,0,1,.08.7.5.5,0,0,1-.7.09Z"/><path class="cls-9" d="M106.66,70l-7.87-7.66,8.53,6.91a.49.49,0,0,1,.08.69.51.51,0,0,1-.71.09Z"/><path class="cls-9" d="M102.37,69.64,97.48,65l5.52,3.9a.49.49,0,0,1,.09.7.51.51,0,0,1-.66.12Z"/><path class="cls-9" d="M98.71,70.22l-3.89-3.68,4.51,2.89a.5.5,0,0,1,.15.69.49.49,0,0,1-.69.15Z"/><path class="cls-9" d="M69.3,72.51c-1.09-.34-2.16-.63-3.23-.92-.53-.14-1.07-.25-1.6-.37s-1.08-.22-1.61-.34-1.06-.21-1.6-.29-1.07-.18-1.61-.25L58,70.14A11.94,11.94,0,0,0,56.42,70h.25l-.2.06a1,1,0,0,0-.27.11,3.86,3.86,0,0,0-.57.3,11,11,0,0,0-1.06.85,12.44,12.44,0,0,0-1,1.06c-.31.38-.59.79-.87,1.2v-.21h0v.23a1.94,1.94,0,0,0,.15.36,3.6,3.6,0,0,0,.54.74,2.65,2.65,0,0,1-.93-.36,1.69,1.69,0,0,1-.41-.35,1.14,1.14,0,0,1-.18-.25.52.52,0,0,1-.07-.15.71.71,0,0,1-.06-.22v-.06l.06-.15a12.15,12.15,0,0,1,.62-1.5,9.53,9.53,0,0,1,.89-1.41A6.54,6.54,0,0,1,54.58,69a4.7,4.7,0,0,1,.74-.52c.13-.08.27-.15.41-.22a2.47,2.47,0,0,1,.54-.19h.25a24.59,24.59,0,0,1,3.43.33,22.49,22.49,0,0,1,3.35.84,20.49,20.49,0,0,1,3.17,1.34A13.19,13.19,0,0,1,69.3,72.51Z"/><path class="cls-9" d="M152.79,75.31l-.11-.19a.57.57,0,0,0-.45-.58,3.25,3.25,0,0,0-.47-.13,1.26,1.26,0,0,0-.72,0,2.45,2.45,0,0,0-.78.29,2.38,2.38,0,0,0-.83,1c-.15.25-.2.64.08.77a3,3,0,0,0,2,.53.83.83,0,0,0,.62-.27,1.3,1.3,0,0,0,.33-.65,1.34,1.34,0,0,0,.15-.41C152.69,75.7,152.84,75.4,152.79,75.31Z"/><path class="cls-9" d="M138.43,75.45l-.07-.11a.35.35,0,0,0-.27-.35l-.29-.08a.79.79,0,0,0-.43,0,1,1,0,0,0-.47.18,1.37,1.37,0,0,0-.51.58c-.09.15-.12.39.05.47a1.82,1.82,0,0,0,1.2.32.55.55,0,0,0,.38-.16,1.2,1.2,0,0,0,.2-.39,1.25,1.25,0,0,0,.09-.25C138.37,75.69,138.46,75.51,138.43,75.45Z"/><path class="cls-9" d="M64.18,72.12,64.11,72a.37.37,0,0,0-.27-.36l-.29-.08a1,1,0,0,0-.43,0,1.43,1.43,0,0,0-.47.18,1.5,1.5,0,0,0-.51.58c-.09.15-.12.39,0,.47a1.77,1.77,0,0,0,1.2.32.47.47,0,0,0,.38-.16.84.84,0,0,0,.2-.4.85.85,0,0,0,.09-.24C64.12,72.36,64.21,72.18,64.18,72.12Z"/><path class="cls-9" d="M56.32,73.15v-.07a.23.23,0,0,0-.17-.24H56a.66.66,0,0,0-.28,0,.67.67,0,0,0-.3.13.79.79,0,0,0-.33.37c-.06.09-.08.24,0,.3a1.16,1.16,0,0,0,.77.2.3.3,0,0,0,.24-.09.57.57,0,0,0,.13-.27.34.34,0,0,0,.06-.15S56.34,73.19,56.32,73.15Z"/><path class="cls-9" d="M59.3,71.15h0a.15.15,0,0,0-.12-.17H59a.23.23,0,0,0-.2,0,.58.58,0,0,0-.22.08.6.6,0,0,0-.24.28c0,.07-.06.18,0,.22a1,1,0,0,0,.57.15.3.3,0,0,0,.17-.08.54.54,0,0,0,.1-.18.24.24,0,0,0,0-.12S59.31,71.18,59.3,71.15Z"/><path class="cls-12" d="M155.34,105.39c5.08-1,10.75-3.92,16.76-5.42l7.33-1.56a82,82,0,0,0,12.5-4.75c8.08-5.85,7.67-6.28,7.67-6.28l-5.29.41c-1.38.37-7.49,1-7.49,1,4.25-4,11.49-7.77,11.49-7.77-4.63-8.25-35.07-11.93-35.07-11.93l-7.77-.57S85,68.09,61.39,74.84c0,0-11.74.35-13.2-.48l-5.1-2a107.73,107.73,0,0,1-10.46-4.7S10.47,57.41,4.7,57.55c0,0-1.29.12,9.16,21.65,0,0,2.77,3.84-1.92,9.6C11.94,88.81,3,103,3,108c0,0,9.2,2.19,32.84-12.61,0,0,11.7-5,13.18-4.74"/><path class="cls-9" d="M143.05,81a.3.3,0,0,0-.07-.11.37.37,0,0,0-.27-.36l-.28-.09a1.62,1.62,0,0,0-.44,0,1.72,1.72,0,0,0-.47.19,1.4,1.4,0,0,0-.5.58c-.09.15-.12.39,0,.47a1.77,1.77,0,0,0,1.2.32.49.49,0,0,0,.37-.16.73.73,0,0,0,.2-.4.5.5,0,0,0,.09-.24C143,81.2,143.08,81,143.05,81Z"/><path class="cls-9" d="M109.1,76.77a.75.75,0,0,0-.07-.12.36.36,0,0,0-.27-.35l-.29-.08a1,1,0,0,0-.43,0,1.37,1.37,0,0,0-1,.77c-.09.15-.11.38,0,.46a1.71,1.71,0,0,0,1.2.32.47.47,0,0,0,.38-.16.77.77,0,0,0,.2-.39A.91.91,0,0,0,109,77S109.13,76.83,109.1,76.77Z"/><path class="cls-9" d="M74.22,78.77l-.12-.19a.57.57,0,0,0-.45-.58,2.91,2.91,0,0,0-.47-.13,1.26,1.26,0,0,0-.72,0,2.12,2.12,0,0,0-1.6,1.3c-.16.25-.2.64.08.77a3,3,0,0,0,2,.53.83.83,0,0,0,.62-.27,1.3,1.3,0,0,0,.33-.65,1.34,1.34,0,0,0,.15-.41C74.12,79.16,74.27,78.86,74.22,78.77Z"/><path class="cls-9" d="M77.71,87.7l-.12-.19a.56.56,0,0,0-.45-.58,3.06,3.06,0,0,0-.46-.13,1.3,1.3,0,0,0-.73,0,2.4,2.4,0,0,0-.77.29,2.32,2.32,0,0,0-.83,1c-.15.25-.2.64.08.77a3,3,0,0,0,2,.53.83.83,0,0,0,.62-.27,1.3,1.3,0,0,0,.33-.65,1.34,1.34,0,0,0,.15-.41C77.61,88.09,77.76,87.79,77.71,87.7Z"/><path class="cls-9" d="M85,81l-.07-.11a.37.37,0,0,0-.27-.36l-.28-.09a1.62,1.62,0,0,0-.44,0,1.72,1.72,0,0,0-.47.19,1.4,1.4,0,0,0-.5.58c-.1.15-.12.39,0,.47a1.75,1.75,0,0,0,1.19.32.47.47,0,0,0,.38-.16.73.73,0,0,0,.2-.4.85.85,0,0,0,.09-.24C84.92,81.2,85,81,85,81Z"/><path class="cls-9" d="M98.67,74.72v-.08a.25.25,0,0,0-.19-.27,1.43,1.43,0,0,0-.2-.05.86.86,0,0,0-.32,0,1.2,1.2,0,0,0-.33.13,1.07,1.07,0,0,0-.37.42c-.06.11-.08.27,0,.33a1.26,1.26,0,0,0,.86.23.35.35,0,0,0,.27-.11.5.5,0,0,0,.14-.29.51.51,0,0,0,.07-.17S98.69,74.76,98.67,74.72Z"/><path class="cls-9" d="M120.18,80.22a.22.22,0,0,0-.05-.08.26.26,0,0,0-.19-.25l-.21-.06a.55.55,0,0,0-.31,0,1.85,1.85,0,0,0-.33.12,1.07,1.07,0,0,0-.37.42c-.06.11-.08.28,0,.34a1.26,1.26,0,0,0,.86.23.33.33,0,0,0,.27-.12.53.53,0,0,0,.14-.28.48.48,0,0,0,.07-.18S120.2,80.26,120.18,80.22Z"/><path class="cls-9" d="M150.58,81.82a.41.41,0,0,0-.05-.09.27.27,0,0,0-.19-.25l-.2,0a.58.58,0,0,0-.32,0,1.85,1.85,0,0,0-.33.12,1.24,1.24,0,0,0-.37.42c-.06.11-.08.28,0,.34a1.26,1.26,0,0,0,.86.23.35.35,0,0,0,.27-.11.5.5,0,0,0,.14-.29.51.51,0,0,0,.07-.17S150.6,81.86,150.58,81.82Z"/><path class="cls-9" d="M191,85.89s-4.18,4.16-5.63,3.44c0,0,7.36,4,15.36-2.76Z"/><path class="cls-9" d="M190.46,82.16s-1.15.59-2.81,1.56c-.84.48-1.8,1.07-2.8,1.73a19.55,19.55,0,0,0-2.95,2.26,3,3,0,0,0-.93,1.35.26.26,0,0,0,0,.21,1,1,0,0,0,.14.24,1.07,1.07,0,0,0,.51.25,3.29,3.29,0,0,0,1.46-.15,4.79,4.79,0,0,0,.73-.24,5.46,5.46,0,0,0,.67-.26,22.85,22.85,0,0,0,2.1-1c.51-.27.8-.39.8-.39l.06.08s-.23.23-.67.6A9.89,9.89,0,0,1,186,89a12.24,12.24,0,0,1-1.12.76,8.66,8.66,0,0,1-1.47.71,4,4,0,0,1-2,.24,1.67,1.67,0,0,1-1.39-1.9v0a4.09,4.09,0,0,1,1.3-1.74A22.07,22.07,0,0,1,184.54,85c1.05-.62,2.07-1.12,2.94-1.56,1.75-.83,2.94-1.33,2.94-1.33Z"/><path class="cls-9" d="M166.38,74.48a29.9,29.9,0,0,0-3.72,6A17.91,17.91,0,0,0,160.83,87a10.48,10.48,0,0,0,.34,3.29,9.3,9.3,0,0,0,1.43,2.89,16.67,16.67,0,0,0,2.19,2.41,22.37,22.37,0,0,0,2.66,2.08l.24.17.06.12a4.23,4.23,0,0,0,.23.41c.1.15.2.29.31.43a5,5,0,0,0,.73.73,3.3,3.3,0,0,0,.43.3,3.51,3.51,0,0,0,.48.22,3.21,3.21,0,0,0,.53.15l.58.08v.19a6.17,6.17,0,0,1-.61.19,3.5,3.5,0,0,1-.65.07,5.08,5.08,0,0,1-.67-.07,4.7,4.7,0,0,1-1.81-.88,5.47,5.47,0,0,1-.51-.45,4.69,4.69,0,0,1-.46-.54l.3.29q-.85-.41-1.65-.87a17,17,0,0,1-1.55-1.07,10.88,10.88,0,0,1-2.54-2.87,11.45,11.45,0,0,1-1.5-7.39A18.38,18.38,0,0,1,161.88,80a28,28,0,0,1,4.35-5.69Z"/><path class="cls-9" d="M168.9,79.7a14.44,14.44,0,0,0-.51,1.85c-.14.62-.25,1.25-.33,1.88a13.14,13.14,0,0,0-.11,1.89v.94l.09.93.17.91a7.34,7.34,0,0,0,.24.89,4.67,4.67,0,0,0,.31.86,7.48,7.48,0,0,0,.39.81l.48.77c.17.23.38.46.56.69l.29.33.34.31.68.58-.19-.11A25.07,25.07,0,0,0,174,94a11.31,11.31,0,0,0,1.3.19h.76l-.44.73V94l-.05-1a16.81,16.81,0,0,0-.22-1.89,8.43,8.43,0,0,0-.19-.9,4.4,4.4,0,0,0-.28-.82,2,2,0,0,0-.19-.36,1.85,1.85,0,0,0-.21-.33,1.68,1.68,0,0,0-.24-.29l-.28-.24-.38-.34v-.19a11.12,11.12,0,0,1-.09-1.41,10.59,10.59,0,0,1,0-1.38,6.58,6.58,0,0,1,.73-2.68l.19.07a9.25,9.25,0,0,0,.12,2.57c.06.43.16.85.24,1.27s.21.84.32,1.23l-.41-.54.58.34c.18.12.33.28.5.42a2.37,2.37,0,0,1,.41.48,2.33,2.33,0,0,1,.34.52,8.13,8.13,0,0,1,.52,1.07,7.77,7.77,0,0,1,.32,1.1,11.41,11.41,0,0,1,.28,2.19V94a10.36,10.36,0,0,1-.08,1.12l-.07.55-.38.18a3.56,3.56,0,0,1-.62.23,3.85,3.85,0,0,1-.48,0,6.51,6.51,0,0,1-.88-.06,13.37,13.37,0,0,1-1.52-.35,27.57,27.57,0,0,1-2.81-1h-.18l-.74-.74-.37-.36-.31-.42c-.2-.29-.42-.55-.6-.85l-.48-.91a7.53,7.53,0,0,1-.37-1,5.17,5.17,0,0,1-.29-1c-.06-.33-.17-.66-.2-1l-.09-1v-1a5.54,5.54,0,0,1,.06-1,15.37,15.37,0,0,1,.3-1.94,17.78,17.78,0,0,1,1.21-3.72Z"/><path class="cls-9" d="M186.1,82.2a3.6,3.6,0,0,1-1.11.59,5.23,5.23,0,0,1-1.25.25,7.2,7.2,0,0,1-1.46-.18,4.64,4.64,0,0,1-.73-.2,4.54,4.54,0,0,1-.68-.3,5.25,5.25,0,0,1-.58-.38l-.42-.46-.26-.44a2.6,2.6,0,0,1-.13-.36l-.1-.32h.09l.16.28c.06.1.12.2.19.3l.31.34.44.32c.18.06.34.16.54.23a3.2,3.2,0,0,0,.61.15,3,3,0,0,0,.66.07,9.5,9.5,0,0,0,1.31-.07,11.61,11.61,0,0,1,1.18,0c.4,0,.81,0,1.21.1Z"/><path class="cls-9" d="M116.31,100.43a40.5,40.5,0,0,1-1.08,5.12c-.23.85-.51,1.68-.79,2.52a20,20,0,0,1-1,2.45,22.27,22.27,0,0,1-2.66,4.68,11.24,11.24,0,0,1-.88,1.06,8.59,8.59,0,0,1-1,1,10.68,10.68,0,0,1-1.19.84l-.66.35-.71.27-.55.22-.44-.46c-.26-.26-.51-.54-.75-.83s-.46-.55-.68-.84c-.43-.57-.83-1.16-1.21-1.76a27.71,27.71,0,0,1-2-3.77c-.28-.65-.53-1.32-.76-2s-.45-1.35-.62-2a26.55,26.55,0,0,1-.73-4.17v-.17a3.58,3.58,0,0,1,.14-.54,4.94,4.94,0,0,1,.19-.49,4.33,4.33,0,0,1,.57-.91,2.74,2.74,0,0,1,.89-.7,2.42,2.42,0,0,1,1.08-.26h.17a11.43,11.43,0,0,0,2.24.62,6.4,6.4,0,0,0,1.16.07,2.79,2.79,0,0,0,1.14-.29,3.8,3.8,0,0,1-2.33.69,10.31,10.31,0,0,1-2.48-.28h.17a1.7,1.7,0,0,0-1.17.78,2.74,2.74,0,0,0-.33.69,2,2,0,0,1-.1.38,2.28,2.28,0,0,0,0,.37v-.17a29.07,29.07,0,0,0,1,3.88c.21.63.43,1.27.68,1.88s.52,1.23.82,1.83a31.16,31.16,0,0,0,1.94,3.48c.36.56.75,1.1,1.14,1.63.2.26.4.52.61.77s.43.51.62.71l-1-.24.5-.19.49-.24a10.44,10.44,0,0,0,.94-.65c.3-.25.6-.51.88-.79s.56-.59.82-.9a20,20,0,0,0,1.46-2c.47-.71.9-1.44,1.3-2.18A76.53,76.53,0,0,0,116.31,100.43Z"/><path class="cls-9" d="M103.77,115.16s.5-.4,1.24-1.07c.9-.81,1.76-1.67,2.58-2.56a18,18,0,0,0,2.2-2.88,5.83,5.83,0,0,0,.32-.6,3.31,3.31,0,0,0,.22-.47l.16-.43-.12.44a4.91,4.91,0,0,1-.17.5q-.12.31-.27.63a19.08,19.08,0,0,1-2,3.13,41.33,41.33,0,0,1-3.54,4.06.51.51,0,0,1-.71,0,.5.5,0,0,1,0-.71Z"/><path class="cls-9" d="M101.06,108.91l.28.06a5.89,5.89,0,0,0,.84,0,6.15,6.15,0,0,0,2.55-.77,4.09,4.09,0,0,0,.64-.37c.2-.14.4-.28.59-.43a9.26,9.26,0,0,0,1-.88c.28-.26.47-.52.63-.69l.23-.26-.2.3c-.13.18-.29.46-.54.76a11.87,11.87,0,0,1-.88,1,6.64,6.64,0,0,1-.55.51,7.42,7.42,0,0,1-.62.49,7.74,7.74,0,0,1-1.38.77,7.64,7.64,0,0,1-1.34.39,6.63,6.63,0,0,1-1,.08h-.42Z"/><path class="cls-9" d="M76.51,97.06a27.27,27.27,0,0,1-1.81,3.08A33.23,33.23,0,0,1,72.53,103c-.38.47-.78.91-1.2,1.35s-.84.86-1.28,1.26-.89.82-1.37,1.2-1,.74-1.45,1.11l.16-.14a15.81,15.81,0,0,1-1.93,1.82,8.25,8.25,0,0,1-1.16.8,3.6,3.6,0,0,1-.75.34,1.93,1.93,0,0,1-1.21,0,1.26,1.26,0,0,1-.47-.25,1.64,1.64,0,0,1-.32-.37,1.55,1.55,0,0,1-.22-.6,3.83,3.83,0,0,1-.07-.83,8.22,8.22,0,0,1,.07-1.34c.08-.85.18-1.66.24-2.48v.36c-.15-.46-.34-1-.54-1.46s-.44-1-.66-1.46a23.55,23.55,0,0,0-1.55-2.77c-.3-.44-.59-.87-.92-1.3s-.66-.82-1-1.2l-.26-.26a4,4,0,0,1-.34-.38,2.64,2.64,0,0,1-.51-1A1.41,1.41,0,0,1,56,94.2a2,2,0,0,1,.9-.63h.77l.63,0,1.26-.14L62.13,93c-.8.29-1.61.57-2.43.83-.4.13-.82.25-1.23.36l-.64.17-.33.07h-.15a.92.92,0,0,0-.42.36v.29a2.05,2.05,0,0,0,.34.45l.25.21.34.29a15.84,15.84,0,0,1,1.25,1.21,14.19,14.19,0,0,1,1.12,1.32,24.29,24.29,0,0,1,1.85,2.91,17.11,17.11,0,0,1,.75,1.55l.33.8c.11.27.21.53.31.83V105c0,.86-.13,1.71-.21,2.53,0,.41-.08.82-.09,1.16a2.94,2.94,0,0,0,0,.42h0a.46.46,0,0,0-.12-.12.42.42,0,0,0-.14-.09h-.09l.4-.18a9.62,9.62,0,0,0,.91-.61c.62-.5,1.22-1,1.78-1.57l.08-.08.08-.06a10.87,10.87,0,0,0,1.41-1,10.3,10.3,0,0,1,1.38-1c.91-.7,1.77-1.47,2.63-2.26A67,67,0,0,0,76.51,97.06Z"/><polygon class="cls-9" points="57.96 96.56 62.07 96.14 58.64 98.44 57.96 96.56"/><polygon class="cls-9" points="60.78 100.5 67.55 98.36 61.64 102.3 60.78 100.5"/><polygon class="cls-9" points="61.74 104.14 70.57 99.88 62.79 105.83 61.74 104.14"/><path class="cls-9" d="M44.2,91s1.21-.57,3-1.28A58.56,58.56,0,0,1,54,87.5c.62-.18,1.27-.31,1.89-.45s1.26-.23,1.86-.35,1.19-.15,1.75-.22l1.57-.1h1.34a5.55,5.55,0,0,1,1,.09l.88.11h-.89a5.57,5.57,0,0,0-1,0,5.6,5.6,0,0,0-1.31.11l-1.53.25c-.54.12-1.11.23-1.69.38s-1.18.32-1.78.51-1.21.38-1.81.61a62.46,62.46,0,0,0-6.44,2.82c-1.71.88-2.79,1.51-2.79,1.51Z"/><path class="cls-9" d="M66.42,90.66l11.76,2c3.53.63,7.65,1.28,12.07,2s9.13,1.44,13.86,2.08S113.56,98,118,98.46c2.23.2,4.38.41,6.42.56s4,.25,5.76.29,3.42,0,4.87,0a30.45,30.45,0,0,0,3.74-.3,21.2,21.2,0,0,0,2.37-.49l.83-.22-.81.28a17.26,17.26,0,0,1-2.35.61c-1,.17-2.3.36-3.76.49s-3.1.19-4.9.19-3.74,0-5.79-.12-4.22-.22-6.46-.43c-4.47-.4-9.22-1-14-1.59s-9.45-1.44-13.86-2.22-8.52-1.6-12-2.31-6.42-1.37-8.46-1.83Z"/><path class="cls-9" d="M144,103.15s.8-.53,2-1.17a27.13,27.13,0,0,1,4.67-2c.44-.14.89-.24,1.33-.36l1.31-.24c.43,0,.84-.1,1.23-.12s.77,0,1.11,0l.93.08a5.55,5.55,0,0,1,.71.13l.6.14-.61-.07a4.17,4.17,0,0,0-.71-.06h-.92c-.33,0-.69.09-1.07.13s-.77.16-1.18.24a12.29,12.29,0,0,0-1.24.36,10.8,10.8,0,0,0-1.23.48,28.6,28.6,0,0,0-4.29,2.32c-1.11.75-1.77,1.31-1.77,1.31a.77.77,0,0,1-1-1.17H144Z"/><path class="cls-9" d="M141.64,107.94s2.69-1.31,5.46-2.46A39,39,0,0,1,151,104c.26-.09.52-.14.74-.2a2.91,2.91,0,0,1,.59-.1.81.81,0,0,1,.38,0h0a1.15,1.15,0,0,0-.37,0,3.62,3.62,0,0,0-.56.17c-.21.09-.45.16-.7.29a35.4,35.4,0,0,0-3.61,1.89c-2.57,1.48-5.06,3.1-5.06,3.1a.78.78,0,0,1-1-.22.75.75,0,0,1,.22-1Z"/><path class="cls-9" d="M41.63,89l-.12-.19a.59.59,0,0,0-.45-.59l-.47-.12a1.46,1.46,0,0,0-.72,0,2.21,2.21,0,0,0-.77.3,2.26,2.26,0,0,0-.83,1c-.16.25-.2.63.08.77a2.9,2.9,0,0,0,2,.51.79.79,0,0,0,.63-.26,1.3,1.3,0,0,0,.33-.65,2.37,2.37,0,0,0,.15-.4C41.53,89.42,41.67,89.11,41.63,89Z"/><path class="cls-9" d="M179.49,72.15a3.28,3.28,0,0,1-.15,1.16,2.57,2.57,0,0,1-.41.87c-.21.25-.56.44-.79.72A6.71,6.71,0,0,0,177,76.5a2.72,2.72,0,0,0-.2.63l-.05.26h-.2l-.11-.27a2,2,0,0,1-.09-.33,3.56,3.56,0,0,1-.06-.44,4.17,4.17,0,0,1,.09-1.12,6.11,6.11,0,0,1,.39-1.21,5.75,5.75,0,0,1,.51-1.16,2.29,2.29,0,0,1,.87-.67,2.74,2.74,0,0,1,1.2-.24Z"/><path class="cls-9" d="M173.15,74.52a.3.3,0,0,0-.07-.11.37.37,0,0,0-.27-.36l-.28-.08a1.09,1.09,0,0,0-.44,0,1.43,1.43,0,0,0-.47.18,1.4,1.4,0,0,0-.5.58c-.09.16-.12.38,0,.47a1.75,1.75,0,0,0,1.19.32.47.47,0,0,0,.38-.16.73.73,0,0,0,.2-.4.85.85,0,0,0,.09-.24C173.09,74.76,173.18,74.57,173.15,74.52Z"/><path class="cls-9" d="M56.47,73.43A28.77,28.77,0,0,1,52.77,75a35.57,35.57,0,0,1-3.94,1.15c-.75.14-1.5.31-2.29.41s-1.57.24-2.37.34c-1.59.22-3.19.39-4.69.48-.75.06-1.48.07-2.17.08a18.76,18.76,0,0,1-2-.06c-.55,0-1.1-.08-1.64-.16a11.58,11.58,0,0,1-1.2-.24l-1.08-.25v-.15l1.08.15a7.31,7.31,0,0,0,1.24.08,11,11,0,0,0,1.62,0,10.54,10.54,0,0,0,1.9-.12c.67-.12,1.39-.12,2.12-.24,1.47-.19,3-.46,4.57-.79s3.08-.68,4.56-1,2.81-.58,4-.79c2.35-.42,4-.59,4-.59Z"/><path class="cls-9" d="M49.74,80.24a2.25,2.25,0,0,0-.34-.47l-.28-.08a.82.82,0,0,0-.44,0,1.3,1.3,0,0,0-1,.76c-.1.16-.12.38,0,.46a1.69,1.69,0,0,0,1.19.32.43.43,0,0,0,.38-.16.77.77,0,0,0,.2-.39.92.92,0,0,0,.09-.25C49.68,80.48,49.77,80.29,49.74,80.24Z"/></g></g></g></svg>