<svg height="512pt" viewBox="-20 0 512 512" width="512pt" xmlns="http://www.w3.org/2000/svg"><path d="m161.605469 265.714844v29.917968l-21.351563-37-13.011718 7.507813 62.535156 108.367187h96.902344l81.300781-140.785156-13.011719-7.511718-40.117188 69.46875v-29.964844c0-37.980469-27.78125-69.597656-64.089843-75.597656l-27.839844-27.839844 15.917969-15.921875 21.230468 21.234375 10.625-10.625-21.234374-21.230469 21.234374-21.230469-10.625-10.621094-21.230468 21.230469-15.917969-15.917969 31.949219-31.949218-10.625-10.625-31.949219 31.945312-15.984375-15.984375-10.621094 10.625 15.984375 15.984375-15.921875 15.917969-21.230468-21.230469-10.621094 10.625 21.230468 21.230469-21.230468 21.230469 10.621094 10.621094 21.230468-21.230469 15.921875 15.917969-15.984375 15.984374 10.621094 10.625 15.984375-15.984374 16.742187 16.738281c-37.933593 4.558593-67.433593 36.9375-67.433593 76.078125zm50.691406-145.902344 15.917969 15.921875-15.917969 15.917969-15.921875-15.917969zm25.933594 84.300781c1.863281 0 3.707031.085938 5.53125.25l.484375.484375.398437-.398437c30.960938 3.21875 55.183594 29.464843 55.183594 61.265625v54.769531l-39 39h-45.199219l-39-39v-54.769531c0-33.96875 27.632813-61.601563 61.601563-61.601563zm0 0"/><path d="m43.886719 117.429688 4.265625-14.40625 39.058594 11.558593-4.261719 14.40625zm0 0"/><path d="m43.890625 154.035156 39.0625-11.558594 4.261719 14.402344-39.058594 11.5625zm0 0"/><path d="m390.9375 121.785156c0-11.226562-9.132812-20.363281-20.363281-20.363281-11.226563 0-20.363281 9.136719-20.363281 20.363281 0 11.230469 9.136718 20.367188 20.363281 20.367188 11.230469 0 20.363281-9.136719 20.363281-20.367188zm-25.703125 0c0-2.945312 2.394531-5.339844 5.339844-5.339844 2.945312 0 5.34375 2.394532 5.34375 5.339844 0 2.945313-2.398438 5.34375-5.34375 5.34375-2.945313 0-5.339844-2.398437-5.339844-5.34375zm0 0"/><path d="m180.144531 42.628906-27.609375-27.605468h121.363282l18.320312 18.324218 10.625-10.625-22.726562-22.722656h-163.851563l53.253906 53.253906zm0 0"/><path d="m138.886719 202.523438-47.339844 47.34375h61.589844v-15.023438h-25.324219l21.695312-21.695312zm0 0"/><path d="m86.742188 195.945312 13.011718-7.507812 13.996094 24.257812-13.011719 7.507813zm0 0"/><path d="m417.039062 199.738281 6.738282 25.144531-116.8125 202.28125-1.007813 1.746094v68.066406l-135.457031-.003906v-68.0625l-117.402344-203.449218-13.011718 7.511718 115.390624 199.960938v79.0625l165.503907.003906v-79.066406l118.917969-205.929688-8.347657-31.15625zm0 0"/><path d="m458.703125 120.78125c-22.957031-25.472656-50.300781-45.464844-81.269531-59.425781-29.847656-13.449219-61.660156-20.707031-94.550782-21.558594-4.195312-.109375-8.382812-.109375-12.550781-.011719l-19.226562-19.222656-10.625 10.621094 9.894531 9.894531c-7.195312.761719-14.34375 1.835937-21.425781 3.230469l-23.75-23.746094-10.621094 10.621094 17.164063 17.164062c-8.234376 2.253906-16.375 4.945313-24.402344 8.074219-29.585938 11.527344-56.277344 28.480469-79.4375 50.445313l-107.902344-85.59375 7.21875 23.230468c18.546875 59.683594 18.542969 122.777344 0 182.460938l-7.21875 23.234375 107.902344-85.601563c19.230468 18.226563 41.019531 33.085938 64.863281 44.214844l6.351563-13.613281c-24.257813-11.324219-46.261719-26.769531-65.394532-45.902344l-4.734375-4.734375-81.339843 64.527344c11.34375-48.375 11.34375-98.339844 0-146.710938l81.339843 64.523438 4.734375-4.734375c45.089844-45.089844 105.058594-68.984375 168.773438-67.355469 63.742187 1.65625 122.359375 28.652344 165.046875 76.023438l4.414062 4.894531-4.414062 4.898437c-35.339844 39.21875-81.472657 64.46875-133.402344 73.019532l2.441406 14.824218c55.328125-9.113281 104.472657-36.011718 142.121094-77.785156l13.480469-14.957031zm0 0"/><path d="m330.136719 72.476562c-9.523438 19.828126-14.351563 41.109376-14.351563 63.257813s4.828125 43.433594 14.355469 63.261719l13.542969-6.507813c-8.542969-17.78125-12.875-36.875-12.875-56.753906s4.332031-38.972656 12.871094-56.753906zm0 0"/><path d="m295.941406 475.257812h-15.019531v-53.058593l13.910156-24.09375 13.007813 7.511719-11.898438 20.605468zm16.90625-78.3125-13.007812-7.511718 7.511718-13.011719 13.007813 7.511719zm12.519532-21.683593-13.007813-7.511719 7.507813-13.011719 13.011718 7.511719zm0 0"/><path d="m289.8125 313.226562h-15.023438v-47.511718c0-5.371094-1.140624-10.546875-3.394531-15.382813l13.617188-6.347656c3.183593 6.835937 4.800781 14.148437 4.800781 21.730469zm-22.75-69.960937c-2.574219-3.300781-5.664062-6.113281-9.179688-8.367187l8.101563-12.652344c4.949219 3.171875 9.292969 7.128906 12.917969 11.769531zm-16.617188-12.015625c-3.914062-1.390625-8.023437-2.097656-12.214843-2.097656v-15.023438c5.910156 0 11.714843.996094 17.25 2.96875zm0 0"/><path d="m361.402344 189.757812-5.789063-13.863281c10.195313-4.257812 20.128907-9.390625 29.523438-15.265625l7.960937 12.742188c-10.085937 6.300781-20.75 11.816406-31.695312 16.386718zm40.355468-22.089843-8.554687-12.347657c3.957031-2.742187 7.863281-5.65625 11.617187-8.667968l9.398438 11.71875c-4.023438 3.230468-8.214844 6.359375-12.460938 9.296875zm20.394532-15.976563-9.941406-11.257812c3.605468-3.183594 7.144531-6.539063 10.519531-9.96875l10.707031 10.535156c-3.621094 3.679688-7.417969 7.277344-11.285156 10.691406zm0 0"/><path d="m305.050781 204.351562c-9.492187-21.679687-14.300781-44.765624-14.300781-68.617187 0-6.066406.320312-12.183594.953125-18.179687l14.941406 1.578124c-.578125 5.472657-.871093 11.058594-.871093 16.601563 0 21.765625 4.386718 42.824219 13.039062 62.59375zm2.886719-94.683593-14.816406-2.488281c.863281-5.152344 1.980468-10.320313 3.3125-15.355469l14.523437 3.84375c-1.214843 4.589843-2.230469 9.300781-3.019531 14zm5.742188-23.15625-14.257813-4.726563c1.640625-4.953125 3.535156-9.886718 5.628906-14.667968l13.761719 6.023437c-1.910156 4.359375-3.636719 8.855469-5.132812 13.371094zm0 0"/></svg>