<svg height="512pt" viewBox="0 -31 512 512" width="512pt" xmlns="http://www.w3.org/2000/svg"><path d="m504.5 329.351562c-13.605469 0-20.800781 2.316407-27.148438 4.363282-6.066406 1.949218-11.308593 3.636718-22.554687 3.636718-11.25 0-16.492187-1.6875-22.558594-3.636718-6.347656-2.046875-13.546875-4.363282-27.148437-4.363282-13.601563 0-20.800782 2.316407-27.148438 4.363282-6.0625 1.949218-11.304687 3.636718-22.550781 3.636718s-16.484375-1.6875-22.550781-3.636718c-6.351563-2.046875-13.546875-4.363282-27.148438-4.363282-13.601562 0-20.796875 2.316407-27.144531 4.363282-6.066406 1.949218-11.308594 3.636718-22.554687 3.636718-11.246094 0-16.484376-1.6875-22.546876-3.636718-6.351562-2.046875-13.546874-4.363282-27.148437-4.363282s-20.800781 2.316407-27.148437 4.363282c-6.066407 1.949218-11.304688 3.636718-22.550782 3.636718s-16.484375-1.6875-22.550781-3.636718c-6.351563-2.046875-13.546875-4.363282-27.148437-4.363282-13.601563 0-20.796876 2.316407-27.148438 4.363282-6.0625 1.949218-11.304688 3.636718-22.550781 3.636718-11.246094 0-16.484375-1.6875-22.550781-3.636718-6.347657-2.046875-13.542969-4.363282-27.144532-4.363282h-7.503906v120.351563h512v-120.351563zm-7.5 105.351563h-482v-90.050781c6.453125.570312 10.519531 1.882812 15.050781 3.339844 6.351563 2.042968 13.546875 4.359374 27.148438 4.359374 13.601562 0 20.796875-2.316406 27.144531-4.359374 6.066406-1.953126 11.304688-3.640626 22.554688-3.640626 11.246093 0 16.484374 1.6875 22.550781 3.640626 6.347656 2.042968 13.542969 4.359374 27.144531 4.359374 13.605469 0 20.800781-2.316406 27.148438-4.359374 6.066406-1.953126 11.304687-3.640626 22.554687-3.640626 11.246094 0 16.484375 1.6875 22.546875 3.640626 6.351562 2.042968 13.546875 4.359374 27.148438 4.359374 13.601562 0 20.796874-2.316406 27.148437-4.359374 6.0625-1.953126 11.300781-3.640626 22.546875-3.640626 11.25 0 16.488281 1.6875 22.554688 3.640626 6.347656 2.042968 13.542968 4.359374 27.148437 4.359374 13.601563 0 20.796875-2.316406 27.144531-4.359374 6.066406-1.953126 11.304688-3.640626 22.550782-3.640626 11.25 0 16.488281 1.6875 22.554687 3.640626 6.351563 2.042968 13.546875 4.359374 27.152344 4.359374s20.800781-2.316406 27.148437-4.359374c4.53125-1.457032 8.601563-2.769532 15.054688-3.339844v90.050781zm0 0"/><path d="m43.773438 177.328125h12.066406v147.289063h15v-147.289063h26.660156v139.539063h15v-139.539063h12.070312l10-33.117187h31.703126l10 33.117187h12.070312v139.988281h15v-139.988281h26.65625v144.558594h15v-144.558594h12.070312l10-33.117187h31.703126l10 33.117187h12.070312v142.039063h15v-142.039063h26.65625v145.757813h15v-145.757813h12.070312l10-33.117187h33.773438v-77.507813h-26.148438v-22.617187h26.148438v-44.085938h-433.34375v144.207031h33.773438zm69.65625-15h-58.515626l-5.472656-18.117187h69.460938zm132.5 0h-58.515626l-5.472656-18.117187h69.460938zm132.5 0h-58.515626l-5.472656-18.117187h69.460938zm13.765624-95.625h-11.144531v-22.617187h11.144531zm-339.902343-22.617187v22.617187h-11.148438v-22.617187zm15 0h11.144531v22.617187h-11.144531zm26.144531 0h11.148438v22.617187h-11.148438zm26.148438 0h11.144531v22.617187h-11.144531zm26.144531 0h11.148437v22.617187h-11.148437zm26.148437 0h11.144532v22.617187h-11.144532zm26.144532 0h11.148437v22.617187h-11.148437zm26.148437 0h11.144531v22.617187h-11.144531zm26.144531 0h11.148438v22.617187h-11.148438zm26.148438 0h11.144531v22.617187h-11.144531zm26.144531 0h11.148437v22.617187h-11.148437zm26.148437 0h11.144532v22.617187h-11.144532zm26.144532 0h11.148437v22.617187h-11.148437zm-339.902344-29.085938h403.34375v14.082031h-403.34375zm0 29.085938h11.144531v22.617187h-11.144531zm0 85.125v-47.507813h403.34375v47.507813zm0 0"/><path d="m451.289062 383.054688c-13.601562 0-20.800781-2.316407-27.148437-4.359376-6.066406-1.953124-11.304687-3.640624-22.554687-3.640624-11.246094 0-16.484376 1.6875-22.550782 3.640624-6.351562 2.042969-13.546875 4.359376-27.148437 4.359376h-.742188l.09375-15h.648438c11.25 0 16.484375-1.6875 22.550781-3.640626 6.351562-2.042968 13.546875-4.359374 27.148438-4.359374 13.605468 0 20.800781 2.316406 27.148437 4.359374 6.066406 1.953126 11.308594 3.640626 22.554687 3.640626zm-110.988281-.660157c-6.644531-.828125-11.386719-2.355469-15.566406-3.703125l-.324219-.105468 4.59375-14.277344.328125.105468c3.898438 1.253907 7.582031 2.441407 12.828125 3.097657zm-24.65625-6.203125c-3.96875-.773437-8.242187-1.136718-13.457031-1.136718v-15c6.121094 0 11.464844.464843 16.335938 1.417968zm0 0"/><path d="m156.597656 410.351562c-13.605468 0-20.800781-2.316406-27.148437-4.359374-6.066407-1.953126-11.304688-3.640626-22.550781-3.640626l-.648438.003907-.09375-15 .742188-.003907c13.601562 0 20.796874 2.316407 27.148437 4.363282 6.0625 1.949218 11.300781 3.636718 22.550781 3.636718 11.246094 0 16.484375-1.6875 22.550782-3.636718 6.347656-2.046875 13.546874-4.363282 27.148437-4.363282v15c-11.25 0-16.488281 1.6875-22.554687 3.640626-6.347657 2.042968-13.542969 4.359374-27.144532 4.359374zm-99.398437 0v-15c5.210937 0 9.488281-.359374 13.453125-1.136718l2.882812 14.71875c-4.875.957031-10.21875 1.417968-16.335937 1.417968zm26.816406-4.253906-4.597656-14.277344.328125-.105468c4.183594-1.347656 8.921875-2.871094 15.566406-3.703125l1.859375 14.886719c-5.246094.652343-8.929687 1.839843-12.828125 3.09375zm0 0"/><path d="m399.695312 106.703125h-64.695312v-15h64.695312zm-74.695312 0h-15v-15h15zm-25 0h-15v-15h15zm0 0"/><path d="m91.5 291.601562h-15v-53.488281h15zm0-63.488281h-15v-15h15zm0-25h-15v-15h15zm0 0"/><path d="m224 291.601562h-15v-53.488281h15zm0-63.488281h-15v-15h15zm0-25h-15v-15h15zm0 0"/><path d="m356.5 291.601562h-15v-53.488281h15zm0-63.488281h-15v-15h15zm0-25h-15v-15h15zm0 0"/></svg>