<svg height="512pt" viewBox="0 -79 512 512" width="512pt" xmlns="http://www.w3.org/2000/svg"><path d="m504.5 163.648438c-13.605469 0-20.800781 2.320312-27.148438 4.363281-6.066406 1.953125-11.308593 3.636719-22.554687 3.636719-11.25 0-16.492187-1.683594-22.558594-3.636719-6.347656-2.042969-13.546875-4.363281-27.148437-4.363281-13.601563 0-20.800782 2.320312-27.148438 4.363281-6.0625 1.953125-11.304687 3.636719-22.550781 3.636719s-16.484375-1.683594-22.550781-3.636719c-6.351563-2.042969-13.546875-4.363281-27.148438-4.363281-13.601562 0-20.796875 2.320312-27.148437 4.363281-6.0625 1.953125-11.300781 3.636719-22.550781 3.636719-11.246094 0-16.484376-1.683594-22.546876-3.636719-6.351562-2.042969-13.546874-4.363281-27.148437-4.363281s-20.800781 2.320312-27.148437 4.363281c-6.0625 1.953125-11.304688 3.636719-22.550782 3.636719s-16.484375-1.683594-22.550781-3.636719c-6.351563-2.042969-13.546875-4.363281-27.148437-4.363281-13.601563 0-20.796876 2.320312-27.148438 4.363281-6.0625 1.953125-11.304688 3.636719-22.550781 3.636719-11.246094 0-16.484375-1.683594-22.550781-3.636719-6.347657-2.042969-13.542969-4.363281-27.144532-4.363281h-7.503906v190.351562h512v-190.351562zm-7.5 175.351562h-482v-160.050781c6.453125.570312 10.519531 1.878906 15.050781 3.339843 6.347657 2.042969 13.546875 4.359376 27.148438 4.359376 13.601562 0 20.796875-2.316407 27.148437-4.359376 6.0625-1.953124 11.304688-3.640624 22.550782-3.640624 11.246093 0 16.484374 1.6875 22.550781 3.640624 6.347656 2.042969 13.542969 4.359376 27.144531 4.359376 13.605469 0 20.800781-2.316407 27.148438-4.359376 6.066406-1.953124 11.304687-3.640624 22.550781-3.640624 11.246093 0 16.484375 1.6875 22.550781 3.640624 6.347656 2.042969 13.546875 4.359376 27.148438 4.359376 13.601562 0 20.796874-2.316407 27.148437-4.359376 6.0625-1.953124 11.300781-3.640624 22.546875-3.640624 11.25 0 16.488281 1.6875 22.554688 3.640624 6.347656 2.042969 13.542968 4.359376 27.148437 4.359376 13.601563 0 20.796875-2.316407 27.144531-4.359376 6.066406-1.953124 11.304688-3.640624 22.550782-3.640624 11.25 0 16.488281 1.6875 22.554687 3.640624 6.351563 2.042969 13.546875 4.359376 27.152344 4.359376s20.800781-2.316407 27.148437-4.359376c4.53125-1.457031 8.601563-2.769531 15.054688-3.339843v160.050781zm0 0"/><path d="m248.496094 0h15v46.59375h-15zm0 0"/><path d="m189.539062 37.988281 13.859376-5.730469 8.902343 21.53125-13.863281 5.730469zm0 0"/><path d="m109.179688 126.324219 5.75-13.855469 21.515624 8.933594-5.75 13.855468zm0 0"/><path d="m299.710938 53.78125 8.898437-21.53125 13.863281 5.730469-8.898437 21.53125zm0 0"/><path d="m375.550781 121.402344 21.515625-8.933594 5.753906 13.851562-21.519531 8.933594zm0 0"/><path d="m124.011719 57.773438 10.605469-10.605469 32.945312 32.945312-10.605469 10.605469zm0 0"/><path d="m344.425781 80.136719 32.945313-32.949219 10.609375 10.605469-32.949219 32.949219zm0 0"/><path d="m162.234375 160.574219c8.742187-44.660157 48.175781-77.074219 93.761719-77.074219 45.585937 0 85.019531 32.414062 93.761718 77.074219l14.71875-2.882813c-10.117187-51.679687-55.738281-89.191406-108.480468-89.191406-52.742188 0-98.363282 37.511719-108.480469 89.191406zm0 0"/><path d="m355.390625 221.648438c-6.121094 0-11.464844-.460938-16.335937-1.417969l2.878906-14.71875c3.96875.773437 8.242187 1.136719 13.457031 1.136719zm-99.402344 0c-13.601562 0-20.796875-2.316407-27.148437-4.359376-6.0625-1.953124-11.300782-3.640624-22.539063-3.640624-11.246093 0-16.488281 1.6875-22.550781 3.640624-6.351562 2.042969-13.546875 4.359376-27.148438 4.359376v-15c11.246094 0 16.484376-1.6875 22.550782-3.636719 6.351562-2.046875 13.546875-4.363281 27.148437-4.363281 13.597657 0 20.792969 2.316406 27.140625 4.359374 6.0625 1.953126 11.300782 3.640626 22.550782 3.640626 11.246093 0 16.484374-1.6875 22.550781-3.636719 6.351562-2.046875 13.546875-4.363281 27.148437-4.363281l.742188.003906-.09375 15-.648438-.003906c-11.246094 0-16.484375 1.6875-22.550781 3.640624-6.351563 2.042969-13.546875 4.359376-27.152344 4.359376zm72.585938-4.253907-.332031-.105469c-3.898438-1.253906-7.582032-2.441406-12.824219-3.097656l1.859375-14.882812c6.640625.828125 11.378906 2.355468 15.5625 3.703125l.328125.105469zm0 0"/><path d="m255.988281 256.648438c-13.601562 0-20.796875-2.316407-27.148437-4.363282-4.535156-1.457031-8.449219-2.71875-14.800782-3.308594l1.382813-14.9375c7.996094.742188 13.320313 2.457032 18.015625 3.96875 6.066406 1.953126 11.304688 3.640626 22.554688 3.640626 11.246093 0 16.484374-1.6875 22.550781-3.636719 6.347656-2.046875 13.546875-4.363281 27.148437-4.363281 13.601563 0 20.792969 2.316406 27.140625 4.359374 4.21875 1.355469 8.199219 2.640626 14.21875 3.25l-1.519531 14.921876c-7.589844-.769532-12.746094-2.429688-17.296875-3.894532-6.0625-1.949218-11.296875-3.636718-22.542969-3.636718-11.25 0-16.488281 1.6875-22.554687 3.640624-6.347657 2.042969-13.542969 4.359376-27.148438 4.359376zm-89.53125-.46875-1.515625-14.921876c5.484375-.558593 9.167969-1.636718 13.078125-2.882812l4.5625 14.289062c-4.371093 1.394532-9.214843 2.816407-16.125 3.515626zm25.058594-6.117188-3.257813-14.640625c5.011719-1.117187 10.222657-1.675781 16.390626-1.761719l.210937 14.996094c-5.117187.074219-9.355469.519531-13.34375 1.40625zm0 0"/><path d="m255.988281 291.648438c-13.601562 0-20.796875-2.316407-27.148437-4.359376-6.0625-1.953124-11.300782-3.640624-22.539063-3.640624-11.234375 0-16.464843 1.683593-22.523437 3.628906l-2.355469-7.117188-2.296875-7.140625c6.402344-2.058593 13.59375-4.371093 27.175781-4.371093 13.597657 0 20.792969 2.316406 27.140625 4.359374 6.0625 1.953126 11.300782 3.640626 22.550782 3.640626 11.246093 0 16.484374-1.6875 22.554687-3.640626l.664063-.210937 4.585937 14.28125-.65625.207031c-6.351563 2.046875-13.546875 4.363282-27.152344 4.363282zm72.285157-4.347657-.0625-.023437c-3.960938-1.269532-7.699219-2.472656-13.097657-3.121094l1.789063-14.894531c6.824218.820312 11.644531 2.371093 15.898437 3.734375zm-35.742188-2.570312-2.796875-14.738281c4.769531-.902344 9.988281-1.34375 15.957031-1.34375h.375l-.0625 15h-.3125c-5.019531 0-9.324218.355468-13.160156 1.082031zm0 0"/><path d="m320.871094 151.339844c-4.886719-11.398438-12.746094-21.371094-22.730469-28.832032l8.980469-12.015624c12.089844 9.039062 21.613281 21.117187 27.539062 34.9375zm-30.300782-33.769532c-3.933593-2.222656-8.09375-4.070312-12.367187-5.492187l4.734375-14.230469c5.1875 1.722656 10.238281 3.964844 15.011719 6.660156zm-21.097656-7.78125c-4.410156-.855468-8.941406-1.289062-13.476562-1.289062v-15c5.492187 0 10.988281.527344 16.335937 1.566406zm0 0"/></svg>